<?xml version="1.0" encoding="UTF-8"?>
<svg id="Layer_2" data-name="Layer 2" xmlns="http://www.w3.org/2000/svg" viewBox="0 0 461.75 82.93">
  <defs>
    <style>
      .cls-1 {
        fill: #fed00c;
      }

      .cls-2 {
        fill: #598f3f;
      }
    </style>
  </defs>
  <g id="Layer_1-2" data-name="Layer 1">
    <g>
      <g>
        <path class="cls-2" d="m100.63,82.24h-6.76V1.39h6.76v80.85Z"/>
        <path class="cls-2" d="m151.54,43.31c3.12,2.56,4.68,5.58,4.68,9.06,0,4.76-1.87,8.43-5.61,11.02-3.74,2.59-8.93,3.88-15.59,3.88-1.48,0-2.74-.03-3.76-.08-3.38-.1-6.68-.15-9.91-.15-5.27,0-9.21.08-11.82.23v-1.54c1.69-.1,2.93-.31,3.72-.61.79-.31,1.33-.89,1.61-1.77.28-.87.42-2.28.42-4.22V21.04c0-1.94-.14-3.35-.42-4.22-.28-.87-.82-1.46-1.61-1.77-.79-.31-2.04-.51-3.72-.61v-1.54c2.61.15,6.5.23,11.67.23l8.52-.08c1.02-.05,2.2-.08,3.53-.08,6.14,0,10.84,1.1,14.09,3.3,3.25,2.2,4.88,5.12,4.88,8.75,0,2.97-1.29,5.73-3.88,8.29-2.59,2.56-6.41,4.3-11.48,5.22v.15c6.65.51,11.54,2.05,14.67,4.61Zm-22.31-28.33c-.64.36-1.09,1-1.34,1.92-.26.92-.38,2.3-.38,4.15v17.35h3.3c3.33,0,5.66-1.14,6.99-3.42,1.33-2.28,2-5.31,2-9.1s-.6-6.71-1.8-8.6c-1.2-1.89-3.11-2.84-5.72-2.84-1.38,0-2.39.18-3.03.54Zm14.24,37.09c0-4.04-1.02-7.12-3.07-9.21-2.05-2.1-5.27-3.15-9.67-3.15h-3.23v19.43c0,1.84.13,3.2.38,4.07.26.87.75,1.47,1.5,1.8.74.33,1.88.5,3.42.5,7.11,0,10.67-4.48,10.67-13.44Z"/>
        <path class="cls-2" d="m193.08,55.9l1.38.46c-1.02,3.33-2.85,6.16-5.49,8.48-2.64,2.33-5.93,3.49-9.87,3.49-5.43,0-9.74-1.73-12.94-5.18-3.2-3.46-4.8-8.56-4.8-15.32s1.71-12.2,5.15-15.86c3.43-3.66,7.99-5.49,13.67-5.49,9.62,0,14.44,5.68,14.44,17.05h-21.58c-.05.77-.08,1.97-.08,3.61,0,3.38.47,6.19,1.42,8.45.95,2.25,2.18,3.89,3.69,4.91,1.51,1.02,3.14,1.54,4.88,1.54,4.2,0,7.58-2.05,10.14-6.14Zm-17.93-24.38c-1.2,2.28-1.96,5.8-2.27,10.56h12.06c.1-4.04-.3-7.38-1.19-10.02-.9-2.64-2.24-3.95-4.03-3.95s-3.37,1.14-4.57,3.42Z"/>
        <path class="cls-2" d="m235.54,13.13c2.15.87,4.25,2.1,6.3,3.69.56.46,1.05.69,1.46.69,1.02,0,1.69-1.54,2-4.61h1.77c-.21,3.48-.31,9.67-.31,18.58h-1.77c-.46-3.79-1.07-6.68-1.84-8.68-.77-2-2.07-3.74-3.92-5.22-1.28-1.23-2.76-2.16-4.45-2.8-1.69-.64-3.46-.96-5.3-.96-5.17,0-9.01,2.52-11.52,7.56-2.51,5.04-3.76,11.33-3.76,18.85s1.31,13.72,3.92,18.74c2.61,5.02,6.5,7.53,11.67,7.53,1.74,0,3.47-.32,5.18-.96,1.71-.64,3.16-1.57,4.34-2.8,1.89-1.43,3.21-3.22,3.95-5.38s1.32-5.3,1.73-9.44h1.77c0,9.27.1,15.72.31,19.35h-1.77c-.15-1.64-.37-2.8-.65-3.49-.28-.69-.68-1.04-1.19-1.04-.41,0-.95.21-1.61.61-2.3,1.64-4.5,2.88-6.6,3.72-2.1.84-4.63,1.27-7.6,1.27-5.43,0-10.17-1.1-14.24-3.3-4.07-2.2-7.23-5.39-9.48-9.56-2.25-4.17-3.38-9.15-3.38-14.93s1.15-10.62,3.46-14.97c2.3-4.35,5.52-7.73,9.64-10.14,4.12-2.41,8.82-3.61,14.09-3.61,3.07,0,5.68.44,7.83,1.3Z"/>
        <path class="cls-2" d="m268.79,33.64c2.3-4.76,6.48-7.14,12.52-7.14,3.99,0,6.81,1,8.45,2.99.87.97,1.5,2.24,1.88,3.8.38,1.56.58,3.62.58,6.18v20.66c0,2.1.36,3.54,1.08,4.34.72.79,2,1.19,3.84,1.19v1.61c-5.32-.2-8.7-.31-10.14-.31-1.74,0-5.07.1-9.98.31v-1.61c1.54,0,2.61-.4,3.22-1.19.61-.79.92-2.24.92-4.34v-23.88c0-2.1-.35-3.69-1.04-4.76-.69-1.08-1.93-1.61-3.72-1.61-2.15,0-3.96.83-5.41,2.5-1.46,1.66-2.19,3.78-2.19,6.33v21.42c0,2.1.31,3.54.92,4.34.61.79,1.69,1.19,3.22,1.19v1.61c-4.91-.2-8.09-.31-9.52-.31-1.74,0-5.27.1-10.6.31v-1.61c1.79,0,3.06-.4,3.8-1.19.74-.79,1.11-2.24,1.11-4.34V16.44c0-2.35-.37-4.07-1.11-5.14-.74-1.07-2.01-1.61-3.8-1.61v-1.61c1.64.15,3.22.23,4.76.23,4.45,0,8.19-.36,11.21-1.08v26.41Z"/>
        <path class="cls-2" d="m302.69,65.27c-1.61-1.69-2.42-3.92-2.42-6.68,0-2.3.6-4.21,1.8-5.72,1.2-1.51,2.66-2.67,4.38-3.49,1.71-.82,3.9-1.69,6.56-2.61,2.82-.97,4.88-1.85,6.18-2.65,1.31-.79,1.96-1.88,1.96-3.26v-5.99c0-2.15-.5-3.83-1.5-5.03-1-1.2-2.55-1.8-4.65-1.8-2.46,0-4.33.61-5.61,1.84,1.43.51,2.55,1.28,3.34,2.3.79,1.02,1.19,2.23,1.19,3.61,0,1.74-.59,3.12-1.77,4.15-1.18,1.02-2.61,1.54-4.3,1.54-1.79,0-3.17-.56-4.15-1.69-.97-1.12-1.46-2.53-1.46-4.22,0-1.43.34-2.65,1.04-3.65s1.75-1.93,3.19-2.8c1.38-.82,3.08-1.46,5.11-1.92,2.02-.46,4.24-.69,6.64-.69s4.68.26,6.53.77c1.84.51,3.38,1.38,4.61,2.61,1.12,1.13,1.88,2.51,2.27,4.15.38,1.64.58,3.87.58,6.68v20.89c0,1.23.12,2.1.35,2.61.23.51.68.77,1.34.77.77,0,1.69-.43,2.76-1.31l.77,1.31c-2.3,1.89-5.12,2.84-8.45,2.84-2.82,0-4.79-.56-5.91-1.69-1.13-1.13-1.72-2.64-1.77-4.53-2.56,4.15-6.32,6.22-11.29,6.22-3.28,0-5.72-.84-7.33-2.53Zm18.47-5.53v-15.74c-.61,1.02-1.92,2.15-3.92,3.38-2,1.28-3.51,2.56-4.53,3.84-1.02,1.28-1.54,3.12-1.54,5.53,0,2.1.43,3.65,1.31,4.65.87,1,2.02,1.5,3.46,1.5,2,0,3.74-1.05,5.22-3.15Z"/>
        <path class="cls-2" d="m376.67,29.49c.87.97,1.48,2.23,1.84,3.76.36,1.54.54,3.61.54,6.22v20.66c0,2.1.37,3.54,1.11,4.34.74.79,2.01,1.19,3.8,1.19v1.61c-5.12-.2-8.5-.31-10.14-.31-1.54,0-4.86.1-9.98.31v-1.61c1.54,0,2.61-.4,3.22-1.19.61-.79.92-2.24.92-4.34v-23.88c0-2.1-.35-3.69-1.04-4.76-.69-1.08-1.93-1.61-3.72-1.61-2.1,0-3.89.86-5.38,2.57-1.49,1.72-2.23,3.83-2.23,6.33v21.35c0,2.1.31,3.54.92,4.34.61.79,1.69,1.19,3.23,1.19v1.61c-4.71-.2-7.88-.31-9.52-.31-1.54,0-5.07.1-10.6.31v-1.61c1.84,0,3.12-.4,3.84-1.19.72-.79,1.08-2.24,1.08-4.34v-24.19c0-2.35-.36-4.07-1.08-5.14s-2-1.61-3.84-1.61v-1.61c1.64.15,3.22.23,4.76.23,4.56,0,8.29-.36,11.21-1.07v6.91c2.3-4.76,6.5-7.14,12.59-7.14,3.89,0,6.71,1,8.45,2.99Z"/>
        <path class="cls-2" d="m420.05,33.9c-.72-.69-1.08-1.68-1.08-2.96s.31-2.48.92-3.76c-1.23.51-2.24,1.09-3.03,1.73-.79.64-1.47,1.45-2.03,2.42,1.59,1.89,2.38,4.35,2.38,7.37,0,4.04-1.4,7.09-4.18,9.14-2.79,2.05-6.49,3.07-11.1,3.07h-1.38c-2.1,1.23-3.15,2.59-3.15,4.07,0,1.64,1.02,2.46,3.07,2.46h8.37c4.5,0,8.1.83,10.79,2.5,2.69,1.66,4.03,4.21,4.03,7.64,0,2.61-.83,4.98-2.5,7.1-1.66,2.12-4.18,3.83-7.56,5.11-3.38,1.28-7.53,1.92-12.44,1.92s-8.95-.63-11.94-1.88c-2.99-1.25-4.49-3.06-4.49-5.41,0-1.59.72-3.01,2.15-4.26,1.43-1.26,3.56-2.24,6.37-2.96l.69,1.23c-1.84,1.54-2.76,3.3-2.76,5.3,0,2.15.97,3.8,2.92,4.95,1.95,1.15,4.63,1.73,8.06,1.73s6.49-.72,8.71-2.15c2.23-1.43,3.34-3.46,3.34-6.07,0-1.69-.63-3.02-1.88-3.99-1.25-.97-3.44-1.46-6.57-1.46h-4.76c-3.28,0-5.84-.55-7.68-1.65-1.84-1.1-2.76-2.78-2.76-5.03,0-1.89.67-3.58,2-5.07,1.33-1.48,3.35-2.92,6.07-4.3-3.69-.46-6.6-1.69-8.75-3.69-2.15-2-3.23-4.76-3.23-8.29,0-4.04,1.39-7.09,4.18-9.14,2.79-2.05,6.49-3.07,11.1-3.07,5.12,0,9.03,1.2,11.75,3.61.97-1.38,2.18-2.48,3.61-3.3,1.43-.82,2.89-1.23,4.38-1.23s2.75.45,3.65,1.34c.9.9,1.34,2.06,1.34,3.49s-.4,2.55-1.19,3.34c-.79.79-1.73,1.19-2.8,1.19s-1.89-.35-2.61-1.04Zm-14.86,13.17c.74-1.64,1.11-4.43,1.11-8.37s-.37-6.73-1.11-8.37c-.74-1.64-1.83-2.46-3.26-2.46s-2.52.82-3.26,2.46c-.74,1.64-1.11,4.43-1.11,8.37s.37,6.73,1.11,8.37c.74,1.64,1.83,2.46,3.26,2.46s2.52-.82,3.26-2.46Z"/>
        <path class="cls-2" d="m460.21,55.9l1.38.46c-1.02,3.33-2.85,6.16-5.49,8.48-2.64,2.33-5.93,3.49-9.87,3.49-5.43,0-9.74-1.73-12.94-5.18-3.2-3.46-4.8-8.56-4.8-15.32s1.71-12.2,5.14-15.86c3.43-3.66,7.99-5.49,13.67-5.49,9.62,0,14.44,5.68,14.44,17.05h-21.58c-.05.77-.08,1.97-.08,3.61,0,3.38.47,6.19,1.42,8.45.95,2.25,2.17,3.89,3.69,4.91,1.51,1.02,3.13,1.54,4.88,1.54,4.2,0,7.58-2.05,10.13-6.14Zm-17.93-24.38c-1.2,2.28-1.96,5.8-2.27,10.56h12.06c.1-4.04-.29-7.38-1.19-10.02-.9-2.64-2.24-3.95-4.03-3.95s-3.37,1.14-4.57,3.42Z"/>
      </g>
      <g>
        <g>
          <path class="cls-2" d="m77.28,26.97c.26.64.5,1.28.73,1.94-.22-.65-.47-1.3-.73-1.94Z"/>
          <path class="cls-2" d="m77.65,29.03c-.22-.65-.47-1.29-.72-1.92l.7-.28c.29.72.53,1.36.74,1.96l-.71.24Z"/>
        </g>
        <g>
          <polygon class="cls-2" points="78.01 28.91 78.01 28.91 78.01 28.91 78.01 28.91"/>
          <polygon class="cls-2" points="77.67 29.07 77.64 28.97 78.37 28.81 78.36 28.82 78.37 28.82 77.67 29.07"/>
        </g>
        <g>
          <path class="cls-2" d="m77.21,26.8c.02.05.04.11.07.17-.35-.88-.72-1.74-1.14-2.59.14.3.27.61.41.91.19.41.37.81.55,1.22.04.1.08.19.12.29Z"/>
          <path class="cls-2" d="m76.93,27.11l-.08-.2c-.04-.11-.09-.22-.13-.32-.16-.38-.33-.76-.51-1.14l-.16-.36c-.08-.18-.16-.36-.25-.54l.67-.33c.31.63.62,1.32.94,2.08.01.02.02.05.03.07l.11.26s.04.09.06.14h0s.02.04.02.06l-.7.28Z"/>
        </g>
        <g>
          <path class="cls-2" d="m73.41,19.68c.15.21.29.43.43.65-.14-.22-.28-.44-.42-.65,0,0,0,0,0,0Z"/>
          <path class="cls-2" d="m73.52,20.54l-.14-.21c-.09-.15-.19-.29-.29-.44l-.15-.22.23-.3.38-.15.17.25c.1.14.19.29.28.43l.15.23-.63.41Z"/>
        </g>
        <g>
          <path class="cls-1" d="m31.32,12.39c-7.94-.65-13.59,6.12-13.25,13.02,0,.01,0,.03,0,.04.01.2.03.4.05.6.02.18.04.36.06.53,0,.04.01.07.02.11,1.01,6.82,7.83,12.35,15.5,10.2,5.75-1.46,9.6-7.46,8.97-13.22-.48-5.79-5.41-10.95-11.34-11.28Zm2.07,23.47c-7.43,2.46-14.37-3.11-15.18-9.91-.42-6.78,5.31-13.48,13.01-12.5,4.8.46,8.79,4.17,9.99,8.7,1.17,5.54-1.6,11.81-7.82,13.71Z"/>
          <path class="cls-1" d="m30.33,37.74c-2.36,0-4.66-.67-6.69-2-3.11-2.02-5.28-5.38-5.81-9l-.02-.1c-.03-.19-.05-.37-.06-.55-.02-.2-.04-.41-.05-.62-.18-3.71,1.31-7.44,3.99-10.03,2.59-2.51,6.02-3.73,9.66-3.43,5.95.33,11.19,5.55,11.69,11.62.66,6.04-3.49,12.16-9.25,13.62-1.15.32-2.31.48-3.46.48Zm-3.49-1.29c2.15.69,4.47.73,6.75.09,5.42-1.38,9.32-7.12,8.7-12.82-.47-5.73-5.4-10.64-10.99-10.95h-.01c-2.37-.2-4.64.29-6.62,1.39,2.01-.99,4.27-1.37,6.6-1.07,4.78.46,9.02,4.15,10.3,8.97,1.13,5.34-1.32,12.1-8.06,14.16-2.22.73-4.5.8-6.66.22Zm2.88-22.71c-2.77,0-5.35,1.02-7.42,2.96-2.54,2.38-3.93,5.83-3.72,9.24.4,3.38,2.4,6.54,5.36,8.42,2.83,1.8,6.14,2.21,9.33,1.16h0c6.32-1.93,8.61-8.28,7.56-13.27-1.19-4.51-5.17-7.97-9.66-8.4-.49-.06-.98-.09-1.46-.09Z"/>
        </g>
        <g>
          <path class="cls-2" d="m77.21,26.8c-.04-.1-.08-.19-.12-.29.04.09.08.19.12.29Z"/>
          <polygon class="cls-2" points="76.86 26.95 76.75 26.66 77.44 26.37 77.56 26.66 76.86 26.95"/>
        </g>
        <g>
          <path class="cls-2" d="m76.55,25.29c.18.41.38.81.55,1.22-.17-.41-.36-.82-.55-1.22Z"/>
          <path class="cls-2" d="m76.75,26.66c-.07-.15-.13-.31-.2-.46-.06-.15-.13-.29-.2-.43l-.15-.32.68-.31c.12.25.24.51.35.77.07.16.14.31.2.47l-.69.29Z"/>
        </g>
        <g>
          <path class="cls-2" d="m78.01,28.91s0,0,0,0c-.22-.66-.47-1.3-.73-1.94-.02-.05-.04-.11-.07-.17.28.7.55,1.4.8,2.1Z"/>
          <path class="cls-2" d="m77.65,29.03c-.08-.25-.17-.5-.27-.76-.15-.39-.3-.78-.45-1.16l-.06-.16s0,0,0,0l.69-.28h0c.21.52.4,1.01.57,1.47.07.19.14.38.2.57.01.03.02.06.03.09l-.71.24Z"/>
        </g>
        <g>
          <path class="cls-2" d="m41.46.37C18.81.37.38,18.81.38,41.46s18.43,41.09,41.09,41.09,41.09-18.43,41.09-41.09S64.12.37,41.46.37Zm30.64,18.5c-5.26,1.46-9.61,5.87-10.76,11.23-.45,1.73-.43,3.52-.25,5.29-4.7,1.2-8.43,5.34-9.09,10.14-1.13.22-2.16.68-3.05,1.34-.09.06-.18.14-.27.2-.07.06-.15.12-.22.18-.18.15-.37.28-.54.44-2.03,1.86-2.76,4.66-2.31,7.26-1.1.13-2.2.22-3.31.27-.44.01-.88.03-1.33.03,0,0-.02,0-.03,0-11.53-.16-22.84-5.72-29.9-14.89-2.69-3.45-4.79-7.35-6.17-11.49-.03-.1-.11-.18-.2-.23C11.99,7.86,36.4-2.65,56.48,6.38c6.16,2.73,11.61,7.07,15.62,12.5Zm-39.4,35.78c3.27.69,7.27,1.07,10.62.8.78-.04,1.57-.09,2.35-.18.4,1.9,1.45,3.65,3.08,4.81-3.22,1.76-6.67,3.09-10.26,3.86-2.98.64-6.03.92-9.07.86-6.26-.19-12.47-1.84-17.95-4.88-1.61-.91-3.16-1.93-4.62-3.06-.33-.25-.67-.49-.98-.75-1.06-2.89-2.93-8.98-2.89-13.24-.19-4.2.34-8.42,1.53-12.46,4.6,12.11,15.48,21.6,28.2,24.24Zm-7.06,10.94c8.28.89,16.83-.76,24.02-5.14.25-.13.25-.51,0-.65-3.81-2.15-4.68-7.6-2.07-10.96.04-.05.08-.11.12-.16.17-.21.36-.41.56-.61.26-.26.54-.49.83-.71.03-.02.05-.04.08-.06.29-.21.6-.4.92-.57.04-.02.08-.03.12-.05.21-.1.43-.19.65-.28.45-.17.92-.29,1.42-.36.12-.02.22-.12.24-.24.66-4.72,4.45-8.75,9.1-9.68.21-.04.36-.24.34-.45-1.07-7.19,4.06-14.52,11.22-15.9.07-.01.12-.05.17-.08,1.15,1.72,2.24,3.62,3.17,5.6-.14-.3-.26-.61-.41-.91.41.84.79,1.71,1.14,2.59.26.64.51,1.29.73,1.94,0,0,0,0,0,0,0,0,0,0,0,0,0,0,0,.01,0,.02.02.06.04.12.06.18.31.93.59,1.85.83,2.77.05.21.1.42.15.63.12.51.23,1.01.33,1.52.44,2.27.68,4.62.71,7.01,0,.25,0,.5,0,.76,0,.1,0,.2,0,.3-.4,15.35-10.19,29.99-25.14,35.38-18.04,6.97-39.48-1.74-47.88-18.9,5.44,3.97,11.94,6.33,18.6,7.01Zm47.75-45.91s0,0,0,0c.15.21.28.44.42.65-.14-.22-.28-.44-.43-.65Z"/>
          <path class="cls-2" d="m41.46,82.93C18.6,82.93,0,64.33,0,41.46S18.6,0,41.46,0s41.46,18.6,41.46,41.46-18.6,41.46-41.46,41.46ZM41.46.75C19.01.75.75,19.01.75,41.46s18.26,40.71,40.71,40.71,40.71-18.26,40.71-40.71S63.91.75,41.46.75Zm.39,79.52c-14.4,0-28.59-8.15-35.14-21.52l-.67-1.36,1.22.89c5.28,3.85,11.65,6.25,18.42,6.94h0c8.47.91,16.92-.9,23.79-5.09l-.09-.05.06.04-.53.29c-3.35,1.83-6.84,3.15-10.36,3.9-2.95.64-6.04.93-9.16.87-6.41-.2-12.67-1.9-18.12-4.93-1.61-.91-3.18-1.94-4.67-3.09l-.37-.28c-.21-.16-.42-.32-.63-.49l-.08-.06-.03-.09c-.3-.82-2.96-8.2-2.91-13.37-.19-4.19.33-8.42,1.54-12.56l.31-1.07.4,1.04c1.16,3.04,2.72,5.92,4.62,8.56-2.1-3.03-3.76-6.34-4.94-9.85l-.25-.16.05-.32C7.86,18.5,15.64,10.28,25.68,5.97c10.02-4.3,21.3-4.28,30.96.06,6.27,2.78,11.72,7.14,15.77,12.62l.32.44-.53.15c-5.18,1.43-9.39,5.84-10.49,10.95-.37,1.46-.45,3.09-.24,5.17l.03.32-.31.08c-1.77.45-3.39,1.33-4.76,2.52,1.48-1.24,3.25-2.13,5.15-2.51-1.06-7.46,4.21-14.94,11.55-16.36l.31-.19.03.03.08-.03.17.25c.1.14.19.29.28.43l.15.23-.03.02c.86,1.35,1.64,2.71,2.33,4.08h.03c.38.76.76,1.62,1.15,2.6.29.71.53,1.36.74,1.96l-.31.11h.02s.3-.1.3-.1l.06.19c.31.92.59,1.86.83,2.8.03.13.06.26.09.39l.06.25c.12.51.23,1.02.33,1.53.45,2.32.69,4.7.72,7.08v.27c0,.17,0,.33,0,.5v.3c-.43,16.04-10.63,30.4-25.4,35.73-4.27,1.65-8.76,2.43-13.21,2.43ZM8.08,59.76c8.84,16.26,29.46,24.04,46.72,17.37,14.48-5.23,24.49-19.31,24.9-35.04v-.3c.01-.16,0-.32,0-.48v-.27c-.03-2.33-.26-4.67-.7-6.94-.1-.5-.2-1-.33-1.5l-.06-.26c-.03-.12-.05-.25-.09-.37-.24-.92-.51-1.84-.82-2.75l-.06-.18.41-.15-.22.07.49-.21-.7.28c-.2-.6-.44-1.22-.72-1.92-.24-.6-.47-1.15-.71-1.67h-.02c-.83-1.77-1.83-3.55-2.97-5.29-6.94,1.36-11.91,8.44-10.87,15.47.04.43-.23.79-.63.88-4.47.89-8.18,4.82-8.81,9.36-.04.28-.26.51-.54.56-.46.06-.91.18-1.35.34-.2.08-.41.16-.61.26l-.29-.28.17.33c-.29.15-.59.33-.88.54-.37.27-.63.49-.87.73-.2.19-.37.38-.54.58l-.06.08c-1.26,1.63-1.74,3.79-1.32,5.86.4,2,1.58,3.68,3.23,4.61.23.13.37.38.37.65,0,.28-.15.53-.39.65-6.99,4.26-15.61,6.1-24.24,5.18-6.37-.65-12.4-2.79-17.53-6.21Zm-1.9-3.87c.17.14.34.27.52.4.13.09.25.19.38.29,1.46,1.12,3,2.14,4.58,3.02,5.34,2.97,11.49,4.64,17.77,4.84,3.06.06,6.09-.22,8.98-.85,3.27-.7,6.52-1.9,9.65-3.55-1.31-1.09-2.25-2.61-2.68-4.34-.64.06-1.31.11-2.04.15-3.12.25-7.13-.05-10.71-.81-12.28-2.55-23.18-11.7-28.06-23.44-.98,3.72-1.39,7.5-1.22,11.27-.05,4.9,2.4,11.86,2.83,13.03Zm-1.06-27.36c.05.07.09.14.12.22,1.38,4.13,3.44,7.96,6.11,11.39,6.98,9.08,18.05,14.59,29.6,14.75.34,0,.64,0,.95-.02h.39c.95-.05,1.92-.12,2.89-.23-.36-2.77.55-5.44,2.48-7.21.12-.12.27-.23.41-.34l.15-.12c.07-.06.14-.12.22-.18l.1-.08c.06-.05.12-.09.19-.14.89-.65,1.88-1.1,2.93-1.34.76-4.71,4.41-8.8,9.02-10.11-.18-2.02-.08-3.65.29-5.1,1.11-5.19,5.3-9.69,10.5-11.35-3.94-5.17-9.17-9.3-15.15-11.95-9.47-4.25-20.53-4.27-30.36-.06-9.77,4.19-17.35,12.15-20.84,21.86Z"/>
        </g>
      </g>
    </g>
  </g>
</svg>