<svg xmlns="http://www.w3.org/2000/svg" viewBox="0 0 214.01 48.34" width="214.18" height="48.64">
  <path d="M58.92 24.57h154.1v22.9H58.92z" fill="none"/>
  <path d="M59.82 33.47v-8.4h5.2v1h-4.1v2.6h3.6v1h-3.6v2.8h4.2v1zm12.3 0h-.9l-3.2-5.4-.2-.3-.2-.4-.2-.4v6.5h-1v-8.4h.9l3.1 5.3.2.3.2.4.2.4v-6.5h1v8.5zm1.7 0v-8.4h5.2v1h-4.1v2.6h3.6v1h-3.6v2.8h4.2v1zm12.6-6.1c0 .5-.1 1-.4 1.4-.3.4-.6.7-1.1.8l1.7 3.9h-1.2l-1.6-3.7h-2.3v3.7h-1.1v-8.4h3.4l1.1.2.8.5.5.7c.2.2.2.5.2.9zm-4.8-1.4v2.7h2.3l.6-.1.4-.3.3-.4.1-.6c0-.4-.1-.7-.4-1-.2-.2-.6-.4-1.1-.4h-2.2zm11.4 6.5c-.3.4-.6.7-.9.8l-1.2.3c-.5 0-1-.1-1.4-.3-.4-.2-.8-.5-1-.8-.2-.3-.5-.8-.6-1.4a10 10 0 010-3.8l.7-1.4c.3-.4.6-.6 1.1-.8.4-.2.9-.3 1.4-.3l1.2.2c.4.1.7.3 1 .6.3.2.5.6.6.9.2.4.2.8.2 1.3h-1.1l-.1-.9c-.1-.3-.2-.5-.4-.6l-.6-.4-.8-.1-.9.2-.7.6-.4 1a5 5 0 00-.2 1.3v.7c0 1 .2 1.8.6 2.3.4.5.9.8 1.6.8.7 0 1.2-.2 1.5-.6.3-.4.5-1 .5-1.8v-.2h-2.2v-.9h3.3v4.4h-.7zm3.7 1h-1.1v-8.4h1.1zm1.8 0v-8.4h5.2v1h-4.1v2.6h3.6v1h-3.6v2.8h4.2v1zm10.6 0h-1.1v-8.4h1.1zm7.3 0h-.9l-3.1-5.4-.2-.3-.2-.4-.2-.4v6.5h-1v-8.4h.9l3.1 5.3.2.3.2.4.2.4v-6.5h1zm9.8-1c-.3.4-.6.7-.9.8l-1.2.3c-.5 0-1-.1-1.4-.3-.4-.2-.8-.5-1-.8a3 3 0 01-.6-1.4 10 10 0 010-3.8l.7-1.4c.3-.4.6-.6 1.1-.8.4-.2.9-.3 1.4-.3l1.2.2c.4.1.7.3 1 .6.3.2.5.6.6.9.2.4.2.8.2 1.3h-1.3l-.1-.9c-.1-.3-.2-.5-.4-.6l-.6-.4-.8-.1-.9.2c-.3.1-.5.3-.7.6a3 3 0 00-.4 1l-.2 1.3v.7c0 1 .2 1.8.6 2.3.4.5.9.8 1.6.8.7 0 1.2-.2 1.5-.6.3-.4.5-1 .5-1.8v-.2h-2.2v-.9h3.3v4.4h-.7zm2.6 1v-8.4h5.2v1h-4.1v2.6h3.6v1h-3.6v2.8h4.2v1zm12.4 0v-7.3l-.1.5-.1.4-.1.3-1.7 6.1h-1l-1.7-6.1v-.7l-.1-.6h-.1v7.4h-1v-8.4h1.6l1.5 5.5.1.3.1.3.1.3v.3l.1.7h.1l.1-.7.1-.6.1-.5 1.5-5.5h1.6v8.4h-1.1zm2.7 0v-8.4h5.2v1h-4.1v2.6h3.6v1h-3.6v2.8h4.2v1zm7.8 0h-1.1v-8.4h1.1zm7.3 0h-.9l-3.1-5.4-.2-.3-.2-.4-.2-.4v6.5h-1v-8.4h.9l3.1 5.3.2.3.2.4.2.4v-6.5h1zm4.2-8.6l1 .1.8.4.6.7.2 1.1v.1h-1.1v-.2l-.1-.6-.3-.4-.5-.3-.6-.1-.6.1-.5.2-.3.4-.1.5.2.6.5.4.7.3.8.3.8.3.7.4.5.6.2.9-.2 1.2c-.1.3-.3.6-.6.8-.3.2-.6.4-.9.4l-1.1.1-1.1-.1-.9-.4c-.3-.2-.5-.5-.6-.8-.2-.3-.2-.7-.2-1.2v-.2h1.1v.3l.1.7.4.5.5.3.7.1c.6 0 1-.1 1.3-.4.3-.2.5-.6.5-1l-.2-.7-.5-.4-.7-.3-.8-.3-.8-.3-.7-.4-.5-.7-.2-1 .2-1c.1-.3.3-.5.6-.7.2-.2.5-.3.9-.4.4-.1.4.1.8.1zm7.2 0l1.2.2c.4.1.7.3.9.6.2.3.5.6.6 1l.2 1.4h-1.1l-.1-1-.4-.7-.6-.4-.8-.1c-.7 0-1.3.3-1.6.8-.3.5-.5 1.3-.5 2.3v.6c0 1 .2 1.8.5 2.3.4.5.9.8 1.6.8l.8-.1.6-.4.4-.7.1-1h1.1l-.2 1.4c-.1.4-.3.7-.6 1l-.9.6-1.2.2c-1.1 0-1.9-.4-2.5-1.1-.6-.7-.8-1.8-.8-3.3 0-1.5.3-2.6.8-3.3.5-.7 1.4-1.1 2.5-1.1zm9.9 8.6h-1.1v-3.8h-3.4v3.8h-1.1v-8.4h1.1v3.6h3.4v-3.6h1.1zm5.8-1.9h-3.3l-.6 1.9h-1.1l2.7-8.4h1.4l2.7 8.4h-1.2zm-3-1h2.7l-1.1-3.7-.1-.3-.1-.3-.1-.4-.1.4-.1.3-.1.3zm5.6 2.9v-8.4h4.9v1h-3.8v2.7h3.3v1h-3.3v3.7zm5.6-8.5h5.7v1h-2.3v7.4h-1.1v-7.4h-2.3z" fill="#575756"/>
  <g transform="translate(-26.98 -31.43)">
    <linearGradient id="a" gradientUnits="userSpaceOnUse" x1="110.1" y1="51.1" x2="170.1" y2="72.5">
      <stop offset="0" stop-color="#f9b313"/>
      <stop offset="1" stop-color="#f29100"/>
    </linearGradient>
    <path d="M86.6 36.6H93c.6 0 1.1.1 1.6.3l1.3.7c.4.3.6.7.8 1.2.2.5.3.9.3 1.5l-.2 1.2-.5 1-.7.7-.9.5v.1l1 .5.8.8.6 1.1.2 1.3a4.1 4.1 0 01-1.4 3l-1.4.8c-.5.2-1.1.3-1.7.3h-6.4v-15zm2.8 2.5v3.5h2.8l.9-.1c.2-.1.5-.2.6-.4l.4-.6.1-.7c0-.6-.2-1-.5-1.3-.3-.3-.8-.4-1.3-.4zm0 6V49h3.2l.8-.1c.2-.1.5-.2.6-.4l.4-.6.2-.8-.1-.8-.4-.7-.7-.4-.9-.2h-3.1z" fill="url(#a)"/>
    <linearGradient id="b" gradientUnits="userSpaceOnUse" x1="112.4" y1="44.6" x2="172.4" y2="65.9">
      <stop offset="0" stop-color="#f9b313"/>
      <stop offset="1" stop-color="#f29100"/>
    </linearGradient>
    <path d="M99.4 36.6h2.8v10.1c0 .9.2 1.5.6 2 .4.4 1 .7 1.7.7s1.3-.2 1.7-.7c.4-.4.6-1.1.6-2V36.6h2.8v10.2c0 .8-.1 1.5-.4 2.1a4 4 0 01-2.6 2.4c-.6.2-1.3.3-2.1.3s-1.5-.1-2.1-.3a4 4 0 01-2.6-2.4c-.2-.6-.3-1.3-.3-2.1V36.6zm4.3-1.9h-2.2v-2.4h2.2zm3.8 0h-2.2v-2.4h2.2z" fill="url(#b)"/>
    <linearGradient id="c" gradientUnits="userSpaceOnUse" x1="113" y1="43" x2="173" y2="64.4">
      <stop offset="0" stop-color="#f9b313"/>
      <stop offset="1" stop-color="#f29100"/>
    </linearGradient>
    <path d="M114.9 45.3v6.2h-2.8V36.6h6.2c.7 0 1.4.1 2 .3.6.2 1 .5 1.4.9a3.8 3.8 0 011.2 3l-.2 1.3-.5 1.1-.8.9c-.3.3-.7.5-1 .6l2.9 6.8h-3l-2.5-6.2zm0-6.2v3.7h3c.7 0 1.2-.2 1.5-.5.3-.3.5-.8.5-1.5 0-.5-.1-1-.4-1.3a2 2 0 00-1.4-.5h-3.2z" fill="url(#c)"/>
    <linearGradient id="d" gradientUnits="userSpaceOnUse" x1="114.6" y1="38.4" x2="174.6" y2="59.8">
      <stop offset="0" stop-color="#f9b313"/>
      <stop offset="1" stop-color="#f29100"/>
    </linearGradient>
    <path d="M130.7 36.4a5 5 0 012.1.4c.7.2 1.3.6 1.8 1 .5.5.9 1 1.2 1.7.3.7.5 1.5.5 2.3h-2.8l-.2-1.3-.6-1-.9-.6-1.1-.2c-.6 0-1.1.1-1.5.3-.4.2-.8.5-1 .9-.3.4-.5.9-.6 1.5l-.2 2v1.1l.2 2c.1.6.3 1.1.6 1.5.3.4.6.7 1 .9.4.2.9.3 1.5.3l1.2-.3c.4-.2.7-.4.9-.7.3-.3.5-.7.6-1.1l.2-1.5h-3.3v-2.4h6.2v8.1h-1.8l-.5-1.6c-.5.6-1.1 1.1-1.7 1.4a5.4 5.4 0 01-6.4-1.4c-.5-.6-.9-1.4-1.1-2.4-.3-1-.4-2.1-.4-3.4 0-1.3.1-2.4.4-3.4.3-1 .7-1.8 1.2-2.4.5-.6 1.2-1.1 2-1.4.6-.2 1.5-.3 2.5-.3z" fill="url(#d)"/>
    <linearGradient id="e" gradientUnits="userSpaceOnUse" x1="116.1" y1="34.3" x2="176.1" y2="55.7">
      <stop offset="0" stop-color="#f9b313"/>
      <stop offset="1" stop-color="#f29100"/>
    </linearGradient>
    <path d="M138.7 51.5V36.6h9.4v2.5h-6.7v3.5h5.7v2.5h-5.7V49h6.8v2.5z" fill="url(#e)"/>
    <linearGradient id="f" gradientUnits="userSpaceOnUse" x1="117.3" y1="30.9" x2="177.3" y2="52.3">
      <stop offset="0" stop-color="#f9b313"/>
      <stop offset="1" stop-color="#f29100"/>
    </linearGradient>
    <path d="M153.3 45.3v6.2h-2.8V36.6h6.2c.7 0 1.4.1 2 .3.6.2 1 .5 1.4.9a3.8 3.8 0 011.2 3l-.2 1.3-.5 1.1-.8.9c-.3.3-.7.5-1 .6l2.9 6.8h-3l-2.5-6.2zm0-6.2v3.7h3c.7 0 1.2-.2 1.5-.5.3-.3.5-.8.5-1.5 0-.5-.1-1-.4-1.3a2 2 0 00-1.4-.5h-3.2z" fill="url(#f)"/>
    <linearGradient id="g" gradientUnits="userSpaceOnUse" x1="119.2" y1="25.4" x2="179.2" y2="46.7">
      <stop offset="0" stop-color="#f9b313"/>
      <stop offset="1" stop-color="#f29100"/>
    </linearGradient>
    <path d="M175.2 51.5h-2.8l-2-9.4-.1-.6-.1-.7-.1-.8h-.1l-.1.8-.1.7-.1.6-2 9.4H165l-3.2-14.8h2.7l1.8 9.1.1.6.1.7.1.8h.1l.1-.8.1-.7.1-.6 1.8-9.1h3.1l1.8 9.1.1.6.1.7.1.8h.1l.1-.8.1-.7.1-.6 1.8-9.1h2.4z" fill="url(#g)"/>
    <linearGradient id="h" gradientUnits="userSpaceOnUse" x1="120.7" y1="21.4" x2="180.7" y2="42.7">
      <stop offset="0" stop-color="#f9b313"/>
      <stop offset="1" stop-color="#f29100"/>
    </linearGradient>
    <path d="M179.8 51.5V36.6h9.4v2.5h-6.7v3.5h5.7v2.5h-5.7V49h6.8v2.5z" fill="url(#h)"/>
    <linearGradient id="i" gradientUnits="userSpaceOnUse" x1="121.9" y1="18" x2="181.9" y2="39.3">
      <stop offset="0" stop-color="#f9b313"/>
      <stop offset="1" stop-color="#f29100"/>
    </linearGradient>
    <path d="M194.3 45.3v6.2h-2.8V36.6h6.2c.7 0 1.4.1 2 .3.6.2 1 .5 1.4.9a3.8 3.8 0 011.2 3l-.2 1.3-.5 1.1-.8.9c-.3.3-.7.5-1 .6l2.9 6.8h-3l-2.5-6.2zm0-6.2v3.7h3c.7 0 1.2-.2 1.5-.5.3-.3.5-.8.5-1.5 0-.5-.1-1-.4-1.3a2 2 0 00-1.4-.5h-3.2z" fill="url(#i)"/>
    <linearGradient id="j" gradientUnits="userSpaceOnUse" x1="123.5" y1="13.3" x2="183.5" y2="34.6">
      <stop offset="0" stop-color="#f9b313"/>
      <stop offset="1" stop-color="#f29100"/>
    </linearGradient>
    <path d="M207.2 44.2l5.4-7.6h3.1l-4.4 6 4.5 8.8h-3.1l-3.2-6.6-2.3 2.8v3.8h-2.8V36.6h2.8z" fill="url(#j)"/>
    <linearGradient id="k" gradientUnits="userSpaceOnUse" x1="124.9" y1="9.6" x2="184.9" y2="30.9">
      <stop offset="0" stop-color="#f9b313"/>
      <stop offset="1" stop-color="#f29100"/>
    </linearGradient>
    <path d="M217.2 51.5V36.6h9.4v2.5h-6.7v3.5h5.7v2.5h-5.7V49h6.8v2.5z" fill="url(#k)"/>
  </g>
  <g transform="translate(-26.98 -31.43)">
    <linearGradient id="l" gradientUnits="userSpaceOnUse" x1="58.3" y1="83.1" x2="39.3" y2="59.7">
      <stop offset="0" stop-color="#b1b1b1"/>
      <stop offset="1" stop-color="#6f6f6e"/>
    </linearGradient>
    <path d="M40.9 72c1.7.1 3.5-.3 5.4-.5.6-.1.9-.3.9-1a7.8 7.8 0 015.6-7.2l4.1-1.2c.5-.2.7-.1.8.4l.2.6c.5 1.7.5 1.7 2.3 1.2l2.2-.7c.9-.2 1.5.1 1.7.8.2.6-.2 1.2-1 1.4l-3.3 1c-.5.1-.7.4-.5.9l.9 3.2c.1.5.3.6.8.4l3.3-1c.9-.2 1.5 0 1.7.8.2.6-.2 1.2-1.1 1.5l-3.2 1c-.5.1-.7.3-.5.9l.5 1.8c.1.3 0 .5-.3.6-2.3.5-4.4 1.6-6.8 1.5a7.3 7.3 0 01-6.2-3.5c-.4-.6-.7-.7-1.3-.5a40 40 0 01-10.9 1.1c-2.1-.1-4.2-.4-6-1.5-2.1-1.3-2.8-3.4-1.7-5.7 1-2.2 2.6-4 4.4-5.6l3.1-2.4c.2-.2.6-.7.8-.3.3.4.3.9 0 1.4l-.8.7c-1.2 1.2-2.4 2.4-3.1 3.9-1 2.1-.3 3.9 1.7 5 1.6.7 3.5 1 6.3 1z" fill="url(#l)"/>
    <linearGradient id="m" gradientUnits="userSpaceOnUse" x1="38.4" y1="40.8" x2="52.8" y2="63.4">
      <stop offset="0" stop-color="#f9b313"/>
      <stop offset="1" stop-color="#f29100"/>
    </linearGradient>
    <path d="M46.2 68.7c-1-2.4-1.4-4.6-1.8-6.9l-.7-3.7-.1-.3c-.1-.4-.2-1-.8-.9-.5.1-.6.6-.6 1-.3 2.8-.2 5.7-.1 8.5l.1 1.4c0 1.1-.5 1.7-1.4 1.8-.8.1-1.6-.5-1.8-1.5l-.4-3.3c-.5-5.8-.8-11.6-.7-17.5 0-.4.2-.8-.2-1-.4-.2-.7.2-1 .4L35.1 48c-.5.5-1.1.5-1.7 0-.5-.5-.6-1.1-.2-1.7 1.9-2.7 4.2-4.8 7.1-6.4.3-.2.6-.2.6.2l.1.4c.1.3.2.7.5.7s.3-.4.5-.7c.7-1.4 1.5-2.3 3.1-2.8L52 36c.5-.1.8 0 .7.5v.5c.1 1.1 0 1.9-1.3 2.5-2 .9-2.6 3-3.2 5a64.4 64.4 0 00.4 19.2c0 .3.1.5-.1.8a10.2 10.2 0 00-2.3 4.2z" fill="url(#m)"/>
    <linearGradient id="n" gradientUnits="userSpaceOnUse" x1="52" y1="32.2" x2="66.3" y2="54.7">
      <stop offset="0" stop-color="#f9b313"/>
      <stop offset="1" stop-color="#f29100"/>
    </linearGradient>
    <path d="M64.8 41.4l.6-.8.3-.9c3.1 1.7 5.6 3.9 7.6 6.8.4.6.3 1.2-.2 1.6-.5.4-1.1.4-1.6 0-.6-.5-1.1-1.1-1.8-1.5-.3-.2-.6-.4-.9-.2-.3.2-.2.5-.2.8.2 4.2-.1 8.3-.3 12.4 0 .7-.2 1.1-.7 1.5-.8.6-1.6 1.1-2.5 1.5-.4.2-.5.1-.5-.4l-.1-3.9V58c-.1-.5 0-1.2-.7-1.2-.6 0-.7.6-.8 1.1l-.8 4c-.1.4-.2.6-.6.7-2.2.7-2.2.7-2.8-1.5-.3-.9-.1-1.7 0-2.6.4-4.7.8-9.5-.4-14.2-.5-1.9-1.2-3.6-3-4.7l-.2-.1c-.4-.3-1.1-.1-1.2-.7v-2.5c0-.3.3-.3.5-.2 2.9.5 5.8 1.2 8.5 2.2.9.3 1.2 1.4 1.7 2.2-.1.4 0 .6.1.9z" fill="url(#n)"/>
    <linearGradient id="o" gradientUnits="userSpaceOnUse" x1="78.7" y1="66.5" x2="59.7" y2="43.1">
      <stop offset="0" stop-color="#b1b1b1"/>
      <stop offset="1" stop-color="#6f6f6e"/>
    </linearGradient>
    <path d="M71.2 49.2c1.3.1 2.8.3 4.2.9 3.4 1.3 4.2 4.3 2.2 7.4a25.5 25.5 0 01-6.8 6.7l-2.1 1.4c-.9.5-1.7.4-2.3-.3-.5-.7-.4-1.5.5-2.2 1.4-1.1 2.8-2.2 4-3.5.7-.8 1.4-1.6 1.9-2.5 1.4-2.5.5-4.7-2.2-5.6-.6-.2-1-.3-1-1.1.2-1.4 0-1.2 1.6-1.2z" fill="url(#o)"/>
    <linearGradient id="p" gradientUnits="userSpaceOnUse" x1="59.3" y1="27.5" x2="73.7" y2="50">
      <stop offset="0" stop-color="#f9b313"/>
      <stop offset="1" stop-color="#f29100"/>
    </linearGradient>
    <path d="M64.2 32.4c1.6 0 2.9 1.2 2.9 2.8 0 1.6-1.3 2.9-2.8 2.9a3 3 0 01-2.9-2.9c-.1-1.5 1.2-2.8 2.8-2.8z" fill="url(#p)"/>
    <linearGradient id="q" gradientUnits="userSpaceOnUse" x1="43.6" y1="37.5" x2="58" y2="60">
      <stop offset="0" stop-color="#f9b313"/>
      <stop offset="1" stop-color="#f29100"/>
    </linearGradient>
    <path d="M45 35.3c0 1.6-1.4 2.9-2.9 2.8-1.6-.1-2.9-1.4-2.8-3a3 3 0 013-2.8c1.6.1 2.8 1.4 2.7 3z" fill="url(#q)"/>
    <linearGradient id="r" gradientUnits="userSpaceOnUse" x1="70.1" y1="73.5" x2="51.2" y2="50">
      <stop offset="0" stop-color="#b1b1b1"/>
      <stop offset="1" stop-color="#6f6f6e"/>
    </linearGradient>
    <path d="M49 54.5c-.2 0-.3 0-.3-.2 0-.3-.1-.6.2-.7l.7-.3c2.5-.9 5.1-1.8 7.7-2.4.2-.1.5-.3.6.1.1.3.1.7-.3.8l-1 .3c-2.4.6-4.8 1.4-7.1 2.3z" fill="url(#r)"/>
  </g>
</svg>
