<?xml version="1.0" encoding="utf-8"?>
<!-- Generator: Adobe Illustrator 15.1.0, SVG Export Plug-In . SVG Version: 6.00 Build 0)  -->
<!DOCTYPE svg PUBLIC "-//W3C//DTD SVG 1.1//EN" "http://www.w3.org/Graphics/SVG/1.1/DTD/svg11.dtd">
<svg version="1.1" id="Ebene_1" xmlns:sketch="http://www.bohemiancoding.com/sketch/ns"
	 xmlns="http://www.w3.org/2000/svg" xmlns:xlink="http://www.w3.org/1999/xlink" x="0px" y="0px" width="176px" height="140px"
	 viewBox="0 0 176 140" enable-background="new 0 0 176 140" xml:space="preserve">
<g>
	<g>
		<path fill="#FFFFFF" d="M28.2,140c-3.2,0-6.3-1.1-8.8-3.2c-2.5-2.1-4.1-5-4.7-8.3L0.2,36.6C-1,29.2,4.1,22.1,11.5,21L142.9,0.2
			c0.7-0.1,1.4-0.2,2.2-0.2c3.2,0,6.3,1.1,8.8,3.2c2.5,2.1,4.1,5,4.7,8.3l14.6,91.9c1.2,7.4-3.9,14.4-11.3,15.6L30.3,139.8
			C29.6,139.9,28.9,140,28.2,140z"/>
		<path fill="#256BAF" d="M145,1.7c-0.6,0-1.3,0-1.9,0.1L11.8,22.7c-6.5,1-10.9,7.1-9.9,13.6l14.6,91.9c0.9,5.8,5.9,10.1,11.8,10.1
			c0.6,0,1.3-0.1,1.9-0.1l131.3-20.8c6.5-1,10.9-7.2,9.9-13.6l-14.6-91.9C155.8,6,150.9,1.7,145,1.7z"/>
	</g>
	<g>
		<path fill="#FFFFFF" d="M32.3,116.2c-0.1,0-0.1,0-0.2,0l-0.6-0.1c-2.3-0.2-2.7-0.3-2.7-1c-0.1-1,1-1.3,1.3-1.3
			c0.2,0,0.5-0.1,0.7-0.1c0.9,0,1.4,0.4,1.5,1.3v0.1l2.3-0.4h0.1v-0.1c-0.3-1.8-1.6-2.9-3.7-2.9c-0.4,0-0.8,0-1.1,0.1
			c-1.3,0.2-2.4,0.8-3,1.7c-0.5,0.6-0.6,1.4-0.5,2.2c0.3,2.2,2.3,2.4,3.7,2.6c0.3,0,0.6,0.1,0.9,0.1c1.2,0.1,2.3,0.2,2.4,1
			c0.1,0.3,0,0.6-0.2,0.8c-0.4,0.5-1.2,0.7-1.6,0.7c-0.2,0-0.4,0-0.6,0c-1.1,0-1.8-0.6-1.9-1.6v-0.1l-2.4,0.5h-0.1v0.1
			c0.3,2,1.8,3.2,4,3.2c0.4,0,0.8,0,1.2-0.1c2.8-0.5,4.2-2,3.9-4.2C35.4,116.6,33.2,116.3,32.3,116.2z"/>
		<path fill="#FFFFFF" d="M43,118.1c0,0.5-0.1,1.6-1.3,1.7c-0.1,0-0.2,0-0.3,0c-1.2,0-1.6-1.4-1.7-2.1c-0.2-1.1,0.1-2.4,1.3-2.7
			c0.9-0.1,1.4,0.2,1.7,1v0.1l2-0.3v-0.1c-0.3-1.5-1.6-2.4-3.3-2.4c-0.3,0-0.5,0-0.8,0.1c-1.1,0.2-2.1,0.7-2.6,1.5
			c-0.6,0.9-0.8,2-0.6,3.3c0.4,2.1,1.9,3.4,3.8,3.4c0.3,0,0.5,0,0.8-0.1c2.1-0.3,3.3-1.7,3.3-3.8v-0.1L43,118.1L43,118.1z"/>
		<path fill="#FFFFFF" d="M50.6,111.9c-0.8,0.1-1.5,0.6-1.9,1.4l-0.6-3.8l-2.2,0.3h-0.1l1.5,10.7l2.2-0.3h0.1l-0.6-4.1
			c-0.1-0.9,0-1.5,0.2-1.9c0.2-0.3,0.5-0.4,1-0.4c0.9-0.2,1.3,0.3,1.5,1.6l0.7,4.4l2.2-0.3h0.1l-0.7-4.8
			C53.6,112.5,52.6,111.6,50.6,111.9z"/>
		<polygon fill="#FFFFFF" points="61.7,109.2 61.4,107.3 59.2,107.6 59.5,109.5 		"/>
		<polygon fill="#FFFFFF" points="58.7,109.7 58.4,107.8 56.2,108.1 56.5,110 		"/>
		<path fill="#FFFFFF" d="M60.1,110.3c-0.3,0-0.5,0-0.8,0.1c-2.5,0.4-3.8,2.3-3.4,4.7c0.4,2.2,1.9,3.5,3.9,3.5l0,0
			c0.3,0,0.5,0,0.8-0.1c2.5-0.4,3.8-2.3,3.4-4.7C63.6,111.7,62.1,110.3,60.1,110.3z M61.4,116.2c-0.2,0.3-0.6,0.5-1.1,0.6
			c-0.1,0-0.2,0-0.3,0c-1.2,0-1.6-1.1-1.8-2.1c-0.1-0.6-0.1-1.4,0.3-2c0.2-0.3,0.6-0.5,1.1-0.6c0.1,0,0.2,0,0.3,0
			c1.2,0,1.6,1.1,1.8,2.1C61.8,114.8,61.8,115.6,61.4,116.2z"/>
		<path fill="#FFFFFF" d="M69.7,108.8c-0.9,0.1-1.6,0.6-2.1,1.4l-0.2-0.9l-2.2,0.3l1.1,7.7v0.1l2.2-0.3h0.1L68,113
			c-0.1-0.9,0-1.5,0.2-1.9c0.2-0.3,0.5-0.4,1-0.4c0.9-0.2,1.3,0.3,1.5,1.6l0.7,4.4l2.2-0.3h0.1l-0.7-4.8
			C72.7,109.4,71.7,108.5,69.7,108.8z"/>
		<path fill="#FFFFFF" d="M82.7,113l-0.6-4c-0.2-1.5-1.5-1.8-2.6-1.8c-0.4,0-0.8,0-1.2,0.1c-2.3,0.4-3.4,1.5-3.3,3.2v0.1l2.3-0.3
			v-0.1c-0.1-0.7,0.3-1.1,1.1-1.3c0.2,0,0.4,0,0.5,0c0.6,0,0.8,0.2,0.9,0.8c0.1,0.6-0.5,0.8-1.5,1.1c-0.2,0.1-0.5,0.1-0.7,0.2
			c-1.4,0.4-2.6,1-2.3,2.8c0.2,1.3,1,2,2.4,2c0.2,0,0.4,0,0.6,0c1-0.1,1.9-0.6,2.4-1.2c0,0.1,0.1,0.1,0.1,0.2
			c0.1,0.1,0.1,0.3,0.2,0.4v0.1l2.3-0.3l-0.1-0.1C83,114.4,82.8,113.7,82.7,113z M80,113.4c-0.2,0.3-0.6,0.5-1.1,0.6
			c-0.1,0-0.3,0-0.4,0c-0.6,0-0.8-0.2-0.9-0.8c-0.1-0.7,0.3-1,1-1.2c0.1,0,0.2-0.1,0.4-0.1c0.5-0.1,0.9-0.3,1.2-0.5v0.6
			C80.3,112.4,80.3,113,80,113.4z"/>
		<path fill="#FFFFFF" d="M91.3,105.6L91.3,105.6l-2.2,0.2H89l0.6,4.1c0.1,0.9,0,1.5-0.2,1.9c-0.2,0.3-0.5,0.4-1,0.4
			c-0.9,0.2-1.3-0.3-1.5-1.6l-0.7-4.4l-2.2,0.3h-0.1l0.7,4.8c0.3,2,1.1,2.8,2.7,2.8c0.2,0,0.4,0,0.7,0c0.9-0.1,1.6-0.6,2.1-1.4
			l0.2,0.9l2.2-0.3L91.3,105.6z"/>
	</g>
	<g>
		<polygon fill="#FFFFFF" points="26.3,105.9 25.7,102 31.4,101 31.5,101 31.4,100 25.5,100.9 24.9,97.3 31,96.3 31.1,96.3 31,95.3 
			23.7,96.4 23.6,96.4 25.2,107 25.2,107.1 32.6,105.9 32.7,105.9 32.6,104.9 		"/>
		<polygon fill="#FFFFFF" points="34.4,94.8 33.2,94.9 34.9,105.5 34.9,105.6 36,105.4 34.4,94.9 		"/>
		<path fill="#FFFFFF" d="M43.7,101.5c-0.1,1.3-0.8,2-2,2.2c-0.1,0-0.3,0-0.4,0c-1.7,0-2.3-1.8-2.4-2.5l5.9-0.9v-0.1
			c-0.3-1.8-1.3-3.8-3.5-3.8c-0.2,0-0.4,0-0.6,0.1c-2.6,0.4-3.1,2.7-2.9,4.6c0.3,2.3,1.6,3.6,3.5,3.6c0.2,0,0.4,0,0.6,0
			c1.8-0.3,2.7-1.4,3-3.3v-0.1L43.7,101.5L43.7,101.5z M43.4,99.6l-4.7,0.8c-0.1-1.3,0.5-2.6,2-2.9c0.1,0,0.2,0,0.3,0
			C42.2,97.5,43.2,98.3,43.4,99.6z"/>
		<polygon fill="#FFFFFF" points="52.9,94.8 51.4,95 47.9,99.3 46.9,92.9 46.9,92.8 45.8,92.9 47.4,103.5 47.4,103.6 48.5,103.4 
			48.1,100.5 49.3,99.1 52.9,102.7 54.3,102.6 50,98.2 		"/>
		<path fill="#FFFFFF" d="M58.7,100.8c-0.1,0-0.3,0.1-0.4,0.1c-0.1,0-0.3,0.1-0.4,0.1c-0.6,0.1-0.7-0.2-0.8-0.8l-0.8-5l1.5-0.2
			l-0.1-1l-1.5,0.2L55.8,92l-1.1,0.1l0.4,2.3l-1.3,0.2l0.1,1l1.3-0.2l0.8,5.1c0.2,1.1,0.6,1.5,1.4,1.5c0.2,0,0.4,0,0.6-0.1
			c0.3,0,0.4-0.1,0.6-0.1c0.1,0,0.1,0,0.2-0.1h0.1L58.7,100.8L58.7,100.8z"/>
		<path fill="#FFFFFF" d="M63.8,93c-1.3,0.2-2.2,0.9-2.6,2L61,93.5l-1.1,0.2l1.2,7.6v0.1l1.1-0.1l-0.6-4.1c-0.1-0.8,0.1-1.6,0.5-2.1
			s1-0.9,1.8-1H64L63.8,93L63.8,93z"/>
		<polygon fill="#FFFFFF" points="66.3,89.7 65.2,89.9 65.4,91.5 66.5,91.4 		"/>
		<polygon fill="#FFFFFF" points="65.7,92.7 66.9,100.5 68,100.4 66.8,92.6 		"/>
		<polygon fill="#FFFFFF" points="71.1,98.9 75.1,92.1 75.1,92.1 75,91.3 69,92.2 69.1,93.2 73.6,92.5 69.7,99.2 69.7,99.2 
			69.8,100 76.3,99 76.4,99 76.2,98.1 		"/>
		<polygon fill="#FFFFFF" points="77.9,87.9 76.8,88 77,89.7 78.1,89.6 		"/>
		<polygon fill="#FFFFFF" points="77.2,90.9 78.4,98.7 79.5,98.6 78.3,90.8 		"/>
		<path fill="#FFFFFF" d="M85,96.7c-0.1,0-0.3,0.1-0.4,0.1s-0.3,0.1-0.4,0.1c-0.6,0.1-0.7-0.2-0.8-0.8l-0.8-5l1.5-0.2v-1l-1.5,0.2
			l-0.4-2.3l-1.1,0.1l0.4,2.3l-1.3,0.2l0.1,1l1.3-0.2l0.8,5.1c0.2,1.1,0.6,1.5,1.4,1.5c0.2,0,0.4,0,0.6-0.1c0.3,0,0.4-0.1,0.6-0.1
			c0.1,0,0.1,0,0.2-0.1h0.1L85,96.7L85,96.7z"/>
		<polygon fill="#FFFFFF" points="88.4,88 88.2,86.3 87,86.5 87.2,88.2 		"/>
		<polygon fill="#FFFFFF" points="91,87.6 90.8,85.9 89.6,86.1 89.8,87.8 		"/>
		<path fill="#FFFFFF" d="M94,95.2c-0.1,0-0.1,0-0.2,0.1h-0.1c-0.2,0-0.3,0-0.4-0.1c-0.1-0.1-0.1-0.2-0.1-0.3l-0.6-4
			c-0.2-1.4-1.1-2.1-2.5-2.1c-0.2,0-0.5,0-0.8,0.1c-2,0.3-3,1.4-2.8,3.1v0.1l1.2-0.1v-0.1c-0.2-1,0.4-1.8,1.6-2
			c1.3-0.2,1.9,0.1,2.1,1.1c0.1,0.7-0.2,0.9-0.9,1.1l-0.2,0.1c-1.9,0.5-3.8,0.9-3.5,3.1c0.2,1.2,1.1,1.9,2.4,1.9c0.2,0,0.4,0,0.6,0
			c1.4-0.2,1.9-0.8,2.4-1.8c0.1,0.5,0.3,0.9,1,0.9c0.1,0,0.2,0,0.4,0c0.2,0,0.4-0.1,0.6-0.2h0.1L94,95.2L94,95.2z M89.7,96.2
			c-0.1,0-0.2,0-0.3,0c-0.7,0-1.5-0.3-1.5-1.1c-0.2-1.2,1.1-1.6,2.5-2c0.2-0.1,0.5-0.1,0.7-0.2c0,0,0.1,0,0.1-0.1
			c0.2-0.1,0.4-0.1,0.5-0.3l0.2,1C92.1,95,91,96,89.7,96.2z"/>
		<path fill="#FFFFFF" d="M99.2,94.4c-0.1,0-0.3,0.1-0.4,0.1c-0.1,0-0.3,0.1-0.4,0.1c-0.6,0.1-0.7-0.2-0.8-0.8l-0.8-5l1.5-0.2
			l-0.1-1l-1.5,0.3l-0.4-2.3l-1.1,0.1l0.4,2.3l-1.3,0.2l0.1,1l1.3-0.2l0.8,5.1c0.2,1.1,0.6,1.5,1.4,1.5c0.2,0,0.4,0,0.6-0.1
			c0.3,0,0.4-0.1,0.7-0.1c0.1,0,0.1,0,0.2-0.1h0.1L99.2,94.4L99.2,94.4z"/>
		<path fill="#FFFFFF" d="M104.6,90.1L104.6,90.1l-1.3-0.1h-0.1c-0.7-0.1-1.5-0.2-1.7-0.9c-0.1-0.3,0-0.6,0.2-0.8
			c0.3-0.4,0.9-0.6,1.4-0.7c0.2,0,0.3,0,0.5,0c0.9,0,1.4,0.5,1.6,1.3V89l1.2-0.1v-0.1c-0.3-1.3-1.2-2.1-2.7-2.1c-0.2,0-0.4,0-0.6,0
			c-1.3,0.2-2.8,1-2.6,2.7c0.2,1.4,1.3,1.7,2.5,1.8l1.2,0.1c0.9,0.1,1.6,0.2,1.8,1c0.2,1.1-1,1.5-1.7,1.7c-0.2,0-0.3,0-0.5,0
			c-1,0-1.8-0.6-1.9-1.5v-0.1l-1.1,0.1v0.1c0.3,1.5,1.4,2.3,2.8,2.3c0.2,0,0.5,0,0.7-0.1c1.5-0.2,3-1.2,2.8-2.9
			C107,90.6,105.7,90.1,104.6,90.1z"/>
		<polygon fill="#FFFFFF" points="119.4,81.3 118.4,90.6 114.6,82.2 114.6,82.1 113.1,82.3 112.1,91.6 108.4,83.1 108.4,83 
			107.1,83.2 111.7,93.3 111.7,93.4 113,93.2 114.1,83.7 118.1,92.3 118.2,92.4 119.3,92.2 120.6,81.2 120.6,81.1 119.5,81.3 		"/>
		<path fill="#FFFFFF" d="M128.4,88.1c-0.1,1.3-0.8,2-2,2.2c-0.1,0-0.3,0-0.4,0c-1.7,0-2.3-1.8-2.4-2.5l5.8-0.9h0.1v-0.1
			c-0.3-1.8-1.3-3.8-3.5-3.8c-0.2,0-0.4,0-0.6,0.1c-2.6,0.4-3.1,2.7-2.9,4.6c0.3,2.3,1.6,3.6,3.5,3.6c0.2,0,0.4,0,0.6,0
			c1.8-0.3,2.7-1.4,3-3.3v-0.1L128.4,88.1L128.4,88.1z M123.5,87c-0.1-1.3,0.6-2.7,2-2.9c0.1,0,0.2,0,0.3,0c1.2,0,2.1,0.9,2.4,2.2
			L123.5,87z"/>
		<path fill="#FFFFFF" d="M134.8,81.8c-1.3,0.2-2.2,0.9-2.6,2l-0.3-1.5l-1.1,0.1l1.2,7.8l1.1-0.1l-0.6-4.1c-0.1-0.8,0.1-1.6,0.5-2.1
			s1-0.9,1.8-1h0.1L134.8,81.8L134.8,81.8z"/>
		<polygon fill="#FFFFFF" points="143.3,80.5 141.9,80.7 141.9,80.7 138.4,84.9 137.3,78.5 136.2,78.6 137.8,89.3 139,89.1 
			138.5,86.2 139.7,84.8 143.3,88.4 143.4,88.4 144.7,88.2 140.4,83.9 		"/>
		<path fill="#FFFFFF" d="M151,84.4L151,84.4c-0.1,1.4-0.8,2.1-2,2.3c-0.1,0-0.3,0-0.4,0c-1.7,0-2.3-1.8-2.4-2.5l5.8-0.9h0.1v-0.1
			c-0.3-1.8-1.3-3.8-3.5-3.8c-0.2,0-0.4,0-0.6,0.1c-2.6,0.4-3.1,2.7-2.9,4.6c0.3,2.3,1.6,3.6,3.5,3.6c0.2,0,0.4,0,0.6,0
			c1.8-0.3,2.7-1.4,3-3.3v-0.1L151,84.4z M146.1,83.4c-0.1-1.3,0.6-2.7,2-2.9c0.1,0,0.2,0,0.3,0c1.2,0,2.1,0.9,2.4,2.2L146.1,83.4z"
			/>
	</g>
	<g>
		<polygon fill="#FFFFFF" points="29.7,80.8 28.8,75.7 37.8,74.2 37.9,74.2 36.8,67.3 36.8,67.2 27.7,68.7 26.9,63.7 36.4,62.2 
			36.5,62.2 35.4,55.2 17.7,58 17.6,58 22.5,89 22.5,89.1 40.2,86.3 40.3,86.3 39.2,79.3 		"/>
		<polygon fill="#FFFFFF" points="77.9,48.4 75.2,69.3 66.1,50.4 66,50.3 59.6,51.4 59.5,51.4 56.2,72.3 47.8,53.3 47.8,53.2 
			39.3,54.6 39.2,54.6 53.3,84.1 53.4,84.2 61.6,82.9 61.7,82.9 64.9,64 73,81 73.1,81.1 81.4,79.8 86.4,47.2 86.4,47.1 78,48.4 		
			"/>
		<path fill="#FFFFFF" d="M113.1,64c-0.9-5.5-5.3-6.8-9.1-7.3l-2.1-0.3c-1.8-0.2-3.7-0.7-3.9-2.3c-0.1-0.5,0-1.1,0.4-1.5
			c0.6-0.8,1.7-1.3,2.5-1.5c1.9-0.3,3.9,0.2,5.5,1.2l0.1,0.1l2.3-6.9v-0.1h-0.1c-2.1-0.8-4.8-1.2-7.3-1.2c-1,0-2,0.1-2.9,0.2
			c-3.1,0.5-5.6,1.9-7.3,4.1s-2.3,5-1.8,8.1c0.9,6,4.5,6.9,9.8,7.5h0.2c1.8,0.2,4.9,0.5,5.2,2.7c0.3,2.2-1.6,3.3-3.3,3.6
			c-2.3,0.3-4.9-0.4-7.5-2.1l-0.1-0.1l-2.4,7.1v0.1h0.1c2.7,1.3,5.7,2,8.7,2c0.9,0,1.9-0.1,2.8-0.2c3.4-0.6,6.4-2.1,8.4-4.3
			C113,70.6,113.7,67.7,113.1,64z"/>
	</g>
</g>
</svg>
