<svg xmlns="http://www.w3.org/2000/svg" viewBox="0 0 530.9 168.8">
  <g data-name="Layer 2">
    <g data-name="Ebene 1">
      <path d="M153.9 23v52.4H143V33h-15.7V23zM178.3 28.9h.2c3.4-4.4 9-6.8 14.8-6.8 12.4 0 18.9 8.2 18.9 20.4v32.9h-10.8V41.7c0-6.9-2-10.6-9.2-10.6-10.6 0-13.9 7.2-13.9 17v27.2h-10.7V23h10.7z" fill="#c1d82f"/>
      <path d="M259.8 28l.8-.5c4.5-3.6 7.9-5.5 14-5.5 15.5 0 23.7 12.9 23.7 27.2s-8 27-23.3 27c-4.9 0-11.6-2-15.2-5.8v23h-10.7V23h10.8zm0 21.1c0 9.2 3.5 18.2 14 18.2 10.4 0 13.7-8.7 13.7-17.7 0-9.3-2.6-18.6-13.7-18.6-10.5 0-14 9-14 18.1zM445.9 51.2c-.5 9.5 5.6 16 15.2 16 3.2 0 7.1-.3 8.3-3.7H480c-.5 10-11.3 12.7-19.4 12.7-16.6 0-25.5-10.4-25.5-26.7 0-15.6 7.6-27.5 24-27.5S482 32.7 482 48v3.2zm25.4-9c-.2-7-5.4-11.3-12.3-11.3-6.6 0-12.7 4.3-13.1 11.3z" fill="#004b8d"/>
      <path d="M154.7 8a8 8 0 11-7.9-8 8 8 0 018 7.9z" fill="#c1d82f" fill-rule="evenodd"/>
      <path d="M239.2 68.3a8 8 0 11-7.9-8 8 8 0 018 8z" fill="#004b8d" fill-rule="evenodd"/>
      <path fill="#004b8d" d="M328.5 14.2h9.6v29.7h-9.6zM503.4 27.4h.2c2.7-4.6 9-5.6 12.6-5.6 8.8 0 14.7 7.8 14.7 16v2h-9.1v-1.6a6.9 6.9 0 00-7-7.2c-9.5 0-11.4 9.9-11.4 17v27h-10.8V22.8h10.8z"/>
      <path d="M343.1 22.6V34a17.4 17.4 0 11-19.6.4V22.8a28 28 0 1019.6-.2z" fill="#c1d82f"/>
      <path d="M418 75h-11.2l-5.4-21.9-2.5-13h-.1c-.8 4.8-2 8.8-3.2 13L390 75h-10.7l-13-52.2h11.3l4.6 19.7c1 5.2 2.3 10.4 3.3 15.8 1.7-6.3 2.4-10.5 3.6-15.1l5-20.4h9.9l5.2 20c1.5 6 2.8 10.3 3.7 15.5h.1c.8-5.4 1.7-10 3-15.2l4.8-20.2h10.5z" fill="#004b8d"/>
      <path d="M119.7 7.9a8 8 0 11-8-7.9 8 8 0 018 7.9z" fill="#c1d82f" fill-rule="evenodd"/>
      <path d="M46.6 73.3c0 16-10.9 19.8-24.7 19.8C13.6 93.1 2.2 92 2.2 81v-1.1h10.7c-.3 4.7 5.3 5.2 8.9 5.2 12 0 14-2.8 14-11v-7.7l-.4.3a20.4 20.4 0 01-14 5.3C6.4 72 0 60 0 46.2 0 33 7 22 21.3 22c5.2 0 11.3 1.5 14.4 5.7h.1v-4.7h10.8zM35.8 46.5C35.8 38 32.8 30 23 30c-9.7 0-12.2 8.6-12.2 16.8 0 8.8 2.6 17.1 12.7 17.1 9.6 0 12.4-9.1 12.4-17.4zM69 28.6h.2A16.6 16.6 0 0182.7 22c9.2 0 15.9 6.6 15.9 15.9v2H87.8v-1.5c0-4-2-8.3-6.6-8.3C71 30 69 40.2 69 48v27H58.2V23H69zM104.9 23h10.7v35.4s-.5 7.2 6.2 7.2h20.3v9.9H116s-11.1 1-11.1-12.7zM17.2 157.2c-9.5 0-14-6.3-14-15.9 0-10.5 6.7-16.6 15-16.6 8.4 0 14 5.6 14 16s-6.8 16.5-15 16.5zm.4-28.7c-5.2 0-9.9 4.3-9.9 12.2 0 7.5 3.2 12.7 9.9 12.7 5.1 0 10-4.1 10-12.3s-3.7-12.6-10-12.6zm-4.4-6.3a2.5 2.5 0 01-2.5-2.5 2.5 2.5 0 012.5-2.5 2.5 2.5 0 012.5 2.5 2.4 2.4 0 01-2.5 2.5zm9 0a2.5 2.5 0 01-2.5-2.5 2.5 2.5 0 012.5-2.5 2.5 2.5 0 012.5 2.5 2.4 2.4 0 01-2.5 2.5zM50.9 156.7l-8.6-12v12H38v-34h4.2v21l8.1-10.2h5.1L46.6 144l9.6 12.6zM68.5 157.1c-6.3 0-10.4-3.6-10.4-11.8 0-6.8 4.3-12.2 11.3-12.2 6 0 10.4 3.3 10.4 11.6 0 7-4.4 12.4-11.3 12.4zm.5-20.5c-3.4 0-6.5 2.6-6.5 8.3 0 5.6 2.3 8.7 6.5 8.7 3.5 0 6.5-2.7 6.5-8.6 0-5.3-2.2-8.4-6.5-8.4zM89.3 157.1a26.6 26.6 0 01-4.9-.4l.2-3.7a17.2 17.2 0 005 .8c3.1 0 5.2-1.4 5.2-3.6 0-5.1-10.8-2-10.8-10.1 0-4 3.3-7 9.3-7a23.8 23.8 0 014.5.4l-.1 3.5a16 16 0 00-4.7-.7c-3 0-4.6 1.3-4.6 3.3 0 5 10.8 2.3 10.8 10.1 0 4.3-3.7 7.4-9.9 7.4zM112.7 157c-4.8 0-6.3-2-6.3-7v-13.2h-4.7v-3.3h4.7V126l4.3-1.2v8.7h6.4v3.3h-6.4v11.8c0 3.9.7 4.9 3.3 4.9a14 14 0 003.1-.4v3.5a22.8 22.8 0 01-4.4.5zM134.3 137.2c-5-.8-7.3 2.8-7.3 10.2v9.3h-4.2v-23.2h4.1a31.2 31.2 0 01-.5 5.5c1-3.2 3.4-6.4 8-5.9zM147.1 157.1c-6.3 0-10.4-3.6-10.4-11.8 0-6.8 4.3-12.2 11.3-12.2 6 0 10.5 3.3 10.5 11.6 0 7-4.5 12.4-11.4 12.4zm.5-20.5c-3.3 0-6.5 2.6-6.5 8.3 0 5.6 2.3 8.7 6.5 8.7 3.5 0 6.5-2.7 6.5-8.6 0-5.3-2.2-8.4-6.5-8.4zM193.2 156.7v-14.9c0-3.2-.8-5.2-3.8-5.2-3.3 0-6.5 3.5-6.5 9v11.1h-4.1v-15c0-2.8-.7-5.1-3.8-5.1-3.6 0-6.5 3.7-6.5 9v11.1h-4.2v-23.2h4a28.7 28.7 0 01-.3 4.9 8.5 8.5 0 018.1-5.4c5 0 6.2 3.4 6.4 5.3a8.6 8.6 0 018-5.3c4.4 0 6.9 2.4 6.9 7.6v16zM227.9 156.7a28.9 28.9 0 01.2-4.6h-.1a8.3 8.3 0 01-7.9 5c-3.8 0-6.4-2-6.4-5.7 0-5.1 5.2-8.4 14-8.4v-1.7c0-3.2-1.3-5-5.1-5a14.6 14.6 0 00-7 2l-.4-3.7a21.3 21.3 0 018-1.6c6.8 0 8.7 3 8.7 7.7v16zm-.3-10.7c-8 0-9.8 2.5-9.8 4.6s1.4 3.2 3.5 3.2c3.8 0 6.3-3.7 6.3-7.4zM254.7 156.7a34.6 34.6 0 01.3-4.8 8.5 8.5 0 01-8.2 5.3c-5.3 0-7-3.3-7-7.4v-16.3h4.2v15c0 3.3 1 5.2 4 5.2 3.8 0 6.6-3.9 6.6-9v-11.2h4.2v23.2zM270.3 157.1a26.8 26.8 0 01-4.9-.4l.1-3.7a17.3 17.3 0 005.1.8c3.1 0 5.2-1.4 5.2-3.6 0-5.1-10.8-2-10.8-10.1 0-4 3.2-7 9.3-7a23.9 23.9 0 014.5.4l-.1 3.5a16 16 0 00-4.7-.7c-3 0-4.6 1.3-4.6 3.3 0 5 10.8 2.3 10.8 10.1 0 4.3-3.7 7.4-9.9 7.4zM310.7 156.7a27.2 27.2 0 01.4-4.7h-.1a8.2 8.2 0 01-7.8 5.2c-5.7 0-8.6-4.2-8.6-11 0-8 4.7-13 12-13a39 39 0 014 .3v-10.9h4.1v34.1zm-.1-19.7a15.7 15.7 0 00-4.2-.5c-4.4 0-7.3 2.7-7.3 9.3 0 5 1.6 7.9 5.1 7.9 4.2 0 6.3-5 6.3-9zM340.1 144.9H325c-.2 6.2 2.4 8.8 7.3 8.8a16.5 16.5 0 006.8-1.4l.4 3.4a20.7 20.7 0 01-7.9 1.4c-7.1 0-11-3.7-11-11.9 0-7 3.8-12.1 10.4-12.1s9.3 4.4 9.3 9.8a18.2 18.2 0 01-.2 2zm-9.3-8.7c-3 0-5.2 2.3-5.6 5.7H336c0-3.4-2-5.7-5.2-5.7zM357.8 137.2c-4.9-.8-7.2 2.8-7.2 10.2v9.3h-4.2v-23.2h4a31.2 31.2 0 01-.4 5.5c1-3.2 3.4-6.4 8-6zM388.3 156.7l-10.7-14.1h-.2v14.1h-4.2v-31.5l7.8-.2c6.2 0 10.7 2.2 10.7 8.2 0 5.4-4 8.5-9.6 9 1 1 2 2.2 2.8 3.3l8.9 11.2zm-8-28.2l-2.8.1v10.8h2.6c4.6 0 7.2-2.2 7.2-5.6 0-3.8-2.4-5.3-7-5.3zM415.3 144.9h-15.1c-.2 6.2 2.4 8.8 7.3 8.8a16.5 16.5 0 006.8-1.4l.3 3.4a20.7 20.7 0 01-7.8 1.4c-7.1 0-11-3.7-11-11.9 0-7 3.8-12.1 10.4-12.1s9.3 4.4 9.3 9.8a16 16 0 01-.2 2zm-9.3-8.7c-3 0-5.2 2.3-5.7 5.7h10.9c0-3.4-2-5.7-5.2-5.7zM429.3 168.8c-6 0-9.8-2.4-9.8-6.8a7 7 0 013.9-6 3.7 3.7 0 01-2.3-3.4 4.3 4.3 0 012.6-3.9c-2.3-1.3-3.4-3.7-3.4-6.6 0-5 3.7-9 10.2-9a15.3 15.3 0 013.6.4h7.9v3.3h-4a5.6 5.6 0 012 4.5c0 5-3.4 8.7-10 8.7a18.5 18.5 0 01-3-.3 2.1 2.1 0 00-1.4 2c0 1.2 1.1 1.7 4 1.7h4.2c5.1 0 7.9 2.5 7.9 6.7 0 4.9-5.1 8.7-12.4 8.7zm3.3-11.8h-6a5 5 0 00-3 4.3c0 2.7 2.7 4.2 6.3 4.2 4.8 0 7.6-2 7.6-4.9 0-2.3-1.6-3.6-4.9-3.6zm-2.3-20.7c-3.7 0-5.9 2.3-5.9 5.4 0 3.4 2.1 5.3 5.7 5.3s5.8-1.9 5.8-5.3-2-5.5-5.6-5.5zM449.7 129.7a2.7 2.7 0 110-5.5 2.7 2.7 0 012.8 2.7 2.8 2.8 0 01-2.8 2.8zm-2.1 27v-23.2h4.2v23.2zM468 157.1c-6.3 0-10.4-3.6-10.4-11.8 0-6.8 4.3-12.2 11.3-12.2 6 0 10.4 3.3 10.4 11.6 0 7-4.5 12.4-11.3 12.4zm.5-20.5c-3.4 0-6.5 2.6-6.5 8.3 0 5.6 2.3 8.7 6.5 8.7 3.5 0 6.4-2.7 6.4-8.6 0-5.3-2.1-8.4-6.4-8.4zM499.9 156.7v-15c0-3.2-.9-5.2-4-5.2-3.8 0-6.6 4-6.6 9v11.2h-4.2v-23.2h4a28.3 28.3 0 01-.3 4.8 8.5 8.5 0 018.3-5.3c5.3 0 7 3.3 7 7.4v16.2z" fill="#c1d82f"/>
    </g>
  </g>
</svg>
