<svg xmlns="http://www.w3.org/2000/svg" width="157" height="37" viewBox="0 0 156.83 36.58">
    <g>
      <path d="M39.83 6.86c-.15.07-.3.31-.44.44a.15.15 0 01-.09 0 .16.16 0 01-.12 0 1.32 1.32 0 01-.18-.2.81.81 0 01-.1-1.17 1.29 1.29 0 01.37-.33c.05 0 0 0 0-.06h-.07l-.24-.23c-.17-.17-.43-.39-.43-.64s.54-.46.4-.94a.57.57 0 00-.2-.33c-.37-.28-1.15 0-1 .54a.86.86 0 00.33.44c.07 0 .33.08.06.52a.67.67 0 01-1.16.05.6.6 0 01-.07-.4c0-.3.44-.44.37-.77a.72.72 0 00-1-.51 1.21 1.21 0 00-.52.55c0 .07 0 .08.06.12.3.32.64.73.23 1.12-.08.06-.17.17-.31.17-.41 0-.86-.33-.64-.81a2.78 2.78 0 01.45-.51.59.59 0 00-.18-.34c-.5-.64-1.1-.35-1.43.25a.14.14 0 000 .09l.17.15a.9.9 0 01.27.35.59.59 0 01-.53.79.58.58 0 01-.59-.73 1.45 1.45 0 01.39-.48s.08-.07.08-.11a.41.41 0 00-.09-.21c-.23-.29-.34-.49-.77-.47a.7.7 0 00-.67.66c0 .39.38.33.43.59a.67.67 0 01-1 .73.61.61 0 01-.28-.29c-.24-.45.27-.55.36-.91s-.4-.81-.8-.68a.6.6 0 00-.33.86l.31.41a.54.54 0 01-.1.41c-.91 1.22-1-.29-1.75.16a.63.63 0 00-.21.84.49.49 0 00.19.12 1.27 1.27 0 00.31.15c.3 0 .4-.18.52-.3a.32.32 0 01.49-.11 1 1 0 01.16.12.65.65 0 01-.05 1c-.65.44-.87-.58-1.47-.14a.69.69 0 00-.25.89l.29.36a.68.68 0 01-.08.54 1 1 0 01-.33.33c-.57.33-.68-.47-1.27-.26s-.38 1 0 1.21-.08.47-.2.6-.33.38-.58.38-.34-.23-.52-.33a.65.65 0 00-.92.4.32.32 0 000 .14c0 .28.15.38.35.55s-.16.72-.5.93-.66-.38-1-.4h-.23c-.28.08-.44.5-.73.53s-.52-.7-1.18-.41h-.07l-.08.05a.69.69 0 00-.24.34c-.12.35.18.41.29.7a.63.63 0 01-.49.84.61.61 0 01-.69-.72c.11-.44.62-.38.27-1a.64.64 0 00-.5-.29c-.37 0-.82.37-.66.76s.56.4.24.93a.63.63 0 01-.35.29c-.39.1-1-.19-.9-.64s.56-.42.36-.92a.59.59 0 10-1.09.43.87.87 0 00.32.34c.23.14-.05.49-.16.62a.75.75 0 01-.93.16c-.19-.14-.32-.37-.59-.33s-.5.59-.91.56-.48-.71-1.13-.35a.66.66 0 00-.31.35c-.2.56.54.67.26 1.25a.58.58 0 01-.15.19c-.09.09-.2.15-.31.24a.8.8 0 01-.63-.24c-.23-.19-.4-.39-.58-.18a.71.71 0 01-.12.13c-.15.16-.34.39-.55.41s-.43-.27-.68-.4a.39.39 0 00-.38 0 .72.72 0 00-.22.15.61.61 0 00-.18.32c-.12.42.31.52.36.86a.79.79 0 01-.68.82c-.5 0-.49-.43-1-.39a.65.65 0 00-.54.88c.12.21.35.31.32.59a.77.77 0 01-.58.72c-.55 0-.53-.35-.89-.37a.67.67 0 00-.66.42.6.6 0 000 .4c.07.23.37.35.37.61a.82.82 0 01-.34.62c-.6.56-.75-.34-1.38-.17a.63.63 0 00-.31.94 1 1 0 00.36.31c.4.23.57-.81 1.21-.38a.65.65 0 01.28.51.61.61 0 01-.86.57.72.72 0 01-.36-.28c-.17-.3-.43 0-.55.12-.37.38-.39.58-.3.75s.41.37.35.78-.24.48-.51.66-.4-.34-.95-.38a.61.61 0 00-.56.42c-.11.35.25 1 .66.83s.38-.59.91-.11a.6.6 0 01.21.49.64.64 0 01-.91.52c-.15-.09-.28-.29-.44-.32a.69.69 0 00-.55.29 1.38 1.38 0 00-.14.24 1.35 1.35 0 000 .18.81.81 0 00.3.54.52.52 0 01.19.38c0 .34-.52.46-.51.91v.09c.05.31.55.55.54.82s-.65.42-.44 1.07a.67.67 0 00.28.32c.65.33.9-.56 1.33-.31.24.14.4.46.68.51s.56-.44 1-.44.54.46.87.49.51-.46.86-.49c.53 0 .55.41.92.48s.58-.45.91-.5.43.14.62.29c.48.38.86-.1 1.15-.44s.5.59 1.12.44a.62.62 0 00.35-.92c-.14-.28-.52-.33-.39-.53s.55-.46.64-.83-.67-.63-.33-1.26a.56.56 0 000-.08.67.67 0 01.25-.22.58.58 0 01.48-.06l.37.28a.53.53 0 00.46 0 .6.6 0 00.25-.19c.52-.67-.51-.94-.19-1.47.13-.21.51-.66.8-.53s.53.59 1 .28a.59.59 0 00.24-.3c.22-.51-.24-.57-.32-.92a.67.67 0 01.26-.59c.72-.68.93.44 1.64.08a.88.88 0 00.5-.3.35.35 0 000-.43l-.22-.31a.62.62 0 01.46-.89.64.64 0 01.71.76c-.13.34-.58.4-.33.86a.66.66 0 00.41.3.67.67 0 00.52-.11.65.65 0 00.16-.21.61.61 0 00.05-.12c.15-.45-.42-.58-.36-1a.8.8 0 01.37-.51c.65-.4.76.13 1.13.41.12.13.35-.12.44-.22a.69.69 0 011.14-.06.6.6 0 00.34.21c.36 0 .49-.5.87-.52s.58.62 1.2.35c.14-.06.66-.49.5-.67s-.15-.19-.25-.29a.63.63 0 01.16-1 .6.6 0 01.84.68c-.06.23-.26.31-.4.51a.17.17 0 000 .21.74.74 0 001.1.36.57.57 0 00.14-.78l-.24-.31a.69.69 0 01.37-.76c.64-.3.71.28 1.12.33a.51.51 0 00.25 0c.26-.11.42-.51.71-.54s.5.57 1 .4a.64.64 0 00.32-.22.53.53 0 00.09-.47c-.11-.39-.63-.66-.08-1.17a.67.67 0 01.67-.21l.36.28a.65.65 0 00.85-.27c.41-.64-.75-1 0-1.64s1.1.69 1.74 0c.42-.48.15-.61-.06-.95a.56.56 0 010-.08.69.69 0 01.27-.83c.65-.47 1 .62 1.56.09a.64.64 0 00.09-.92c-.09-.11-.22-.21-.25-.35s.43-.73.64-.88a.14.14 0 000-.16c0-.1-.17-.18-.25-.26a.76.76 0 01-.09-1 .65.65 0 01.79-.11l.34.26c.33.12.68-.23.75-.5a.66.66 0 000-.23c0-.35-.42-.45-.45-.77s.47-.52.55-.86-.67-.64-.36-1.27a2.25 2.25 0 01.47-.55.27.27 0 01.2 0c.29.12.42.69 1 .4a.5.5 0 00.25-.36.55.55 0 00-.76-.76zM4.3 27.94a.56.56 0 01.34-.12A.49.49 0 015 28a.47.47 0 01.17.37.5.5 0 01-.5.51.51.51 0 01-.51-.51.54.54 0 01.14-.43zm.35 2.89a.64.64 0 010-1.27.64.64 0 110 1.27zm2.29-2.48a.42.42 0 01-.41.41.41.41 0 01-.41-.41.42.42 0 01.28-.35h.25a.43.43 0 01.29.35zm-.79-1.86a.34.34 0 01.34-.34.34.34 0 110 .68.34.34 0 01-.34-.34zm.28-2.16a.41.41 0 11-.41.41.41.41 0 01.41-.41zm.11 6.5a.64.64 0 11.63-.63.63.63 0 01-.63.63zm1.79-10.16A.38.38 0 118 21a.37.37 0 01.33-.33zm0 4.35a.32.32 0 11.31-.31.31.31 0 01-.31.29zm.31 1.47a.32.32 0 11-.63 0 .32.32 0 11.63 0zm-.31-3.3a.32.32 0 11.31-.31.31.31 0 01-.31.31zM8.21 28h.25a.41.41 0 11-.54.4.43.43 0 01.29-.4zm.12 2.88A.64.64 0 119 30.2a.64.64 0 01-.67.63zm1.84-12.06a.42.42 0 01.42.42.41.41 0 01-.42.41.41.41 0 01-.41-.41.41.41 0 01.41-.47zm0 3.79a.32.32 0 11-.32.32.31.31 0 01.3-.37zM9.87 21a.33.33 0 11.32.32.32.32 0 01-.32-.32zm.28 3.39a.32.32 0 11-.32.32.31.31 0 01.32-.32zm0 1.73a.38.38 0 110 .75.38.38 0 010-.75zM9.89 28a.55.55 0 01.29-.09.55.55 0 01.28.09.47.47 0 11-.75.38.49.49 0 01.18-.38zm.25 2.88a.64.64 0 11.64-.63.64.64 0 01-.64.58zm2.43-4.3a.5.5 0 01-.51.5.5.5 0 01-.5-.5.5.5 0 01.5-.51.51.51 0 01.51.46zM12 20.73a.32.32 0 11-.31.31.31.31 0 01.31-.31zm-.28-1.53a.31.31 0 01.31-.32.32.32 0 110 .63.31.31 0 01-.36-.31zm.28 3.25a.38.38 0 01.38.37.38.38 0 01-.75 0 .38.38 0 01.37-.37zm0 1.86a.41.41 0 01.41.4.42.42 0 01-.41.42.41.41 0 01-.41-.42.4.4 0 01.41-.4zm0-7.49a.49.49 0 01.5.49.5.5 0 01-.5.51.51.51 0 01-.5-.51.5.5 0 01.5-.49zM11.62 28a.58.58 0 01.41-.18.62.62 0 01.42.17.64.64 0 01.15.4.57.57 0 11-1.13 0 .59.59 0 01.15-.39zm.4 2.89a.64.64 0 01-.64-.64.64.64 0 01.64-.63.63.63 0 01.63.63.64.64 0 01-.65.6zm2.24-8a.41.41 0 01-.41.41.42.42 0 01-.41-.41.41.41 0 01.41-.41.41.41 0 01.41.4zm.05 1.87a.41.41 0 01-.81 0 .41.41 0 11.81 0zm-.54-4a.32.32 0 11-.31.31.31.31 0 01.31-.34zm-.29-1.53a.32.32 0 01.32-.32.32.32 0 010 .63.32.32 0 01-.32-.34zm.29-2.3a.45.45 0 11-.45.45.45.45 0 01.45-.48zm0 10.42a.63.63 0 11.63-.63.63.63 0 01-.61.6zm2.37-4.38a.45.45 0 11-.44-.45.44.44 0 01.46.42zm-.55-4.05a.32.32 0 010 .63.32.32 0 110-.63zm-.28-1.54a.32.32 0 11.32.31.31.31 0 01-.3-.34zm.32 3.33a.41.41 0 01.41.41.42.42 0 01-.83 0 .41.41 0 01.44-.44zM15.54 15a.55.55 0 01.55.55.56.56 0 01-.22.44.55.55 0 01-.66 0 .56.56 0 01-.21-.44.54.54 0 01.54-.55zm.07 10.41a.58.58 0 11.57-.57.57.57 0 01-.57.53zm1.84-10.31a.49.49 0 01.49.49.5.5 0 01-.2.39.48.48 0 01-.29.1.59.59 0 01-.3-.09.49.49 0 01-.2-.39.49.49 0 01.5-.54zm0 3.86a.32.32 0 010 .63.32.32 0 110-.63zm-.32-1.47a.32.32 0 11.31.31.31.31 0 01-.34-.35zm.36 3.3a.31.31 0 010 .62.31.31 0 110-.62zm0 2.83a.58.58 0 01-.57-.57.57.57 0 01.57-.57.56.56 0 01.51.52.57.57 0 01-.55.58zm1.83-8.48a.43.43 0 01.09.85h-.19a.44.44 0 01-.33-.42.43.43 0 01.39-.47zm-.14 2a.32.32 0 110 .63.32.32 0 010-.63zm.36 2.15a.29.29 0 11-.29-.3.29.29 0 01.25.29zm-.19 2.27a.43.43 0 11.43-.43.43.43 0 01-.47.42zm1.74-6.31a.39.39 0 01.38.38.43.43 0 01-.16.32.38.38 0 01-.21.07.47.47 0 01-.21-.06.38.38 0 01.21-.7zm.25 4A.29.29 0 1121 19a.29.29 0 01.3.28zM21 17.13a.32.32 0 11-.32.32.31.31 0 01.32-.32zm0 4.44a.47.47 0 01-.46-.46.46.46 0 01.92 0 .47.47 0 01-.46.46zm1.23-7.88a.52.52 0 11.52.52.51.51 0 01-.48-.52zm.53 1.55a.39.39 0 01.38.38.43.43 0 01-.16.32.38.38 0 01-.21.07.47.47 0 01-.21-.06.38.38 0 01.21-.7zm.33 2.21a.32.32 0 11-.32-.32.31.31 0 01.36.32zM22.81 19a.32.32 0 11-.31.31.31.31 0 01.31-.31zm.19 2.59a.46.46 0 11.46-.46.47.47 0 01-.46.46zm1.68-8.3a.47.47 0 11-.47.46.47.47 0 01.43-.46zm0 3.84a.32.32 0 010 .63.32.32 0 010-.63zm-.29-1.55a.32.32 0 11.32.32.31.31 0 01-.35-.32zm.29 3.33a.36.36 0 11-.36.36.36.36 0 01.33-.36zm.12 2.78a.51.51 0 11.51-.51.51.51 0 01-.54.51zm1.15-9.81a.47.47 0 01.46-.46.46.46 0 01.45.46.45.45 0 01-.45.45.46.46 0 01-.49-.45zm.53 7.75a.36.36 0 11.36-.36.36.36 0 01-.39.36zm0-2.48a.32.32 0 010 .63.32.32 0 010-.63zm-.28-1.54a.32.32 0 01.63 0 .32.32 0 01-.63 0zm.28-1.47a.41.41 0 11.41-.41.41.41 0 01-.44.41zm1.74-4.58a.5.5 0 01.5.51.5.5 0 01-.5.5.5.5 0 01-.51-.5.51.51 0 01.48-.51zm.11 5.75a.31.31 0 01.31.31.32.32 0 01-.63 0 .31.31 0 01.29-.31zM28 13.77a.32.32 0 01.63 0 .32.32 0 11-.63 0zm.32 3.38a.32.32 0 010 .63.32.32 0 110-.63zm-.09-4.8a.42.42 0 11.41-.41.41.41 0 01-.4.41zm.07 7.44a.49.49 0 11.48-.48.48.48 0 01-.47.48zM37.46 7a.51.51 0 110-1 .51.51 0 010 1zM38 8.34a.5.5 0 01-.5.5.5.5 0 01-.51-.5.51.51 0 01.51-.51.5.5 0 01.5.51zm-2.43-1.46a.41.41 0 11.43-.41.41.41 0 01-.43.41zm.35 1.45A.32.32 0 1135.6 8a.31.31 0 01.32.33zm-.35 1.43a.41.41 0 01.41.41.41.41 0 11-.82 0 .41.41 0 01.41-.41zm.06 1.74a.51.51 0 01.51.51.5.5 0 01-.51.5.5.5 0 01-.5-.5.5.5 0 01.5-.51zm-1.86-1.71a.32.32 0 01.32.32.32.32 0 01-.64 0 .32.32 0 01.32-.32zm-.32-1.46a.32.32 0 11.32.31.32.32 0 01-.32-.31zm.32 3.29a.32.32 0 01.32.32.32.32 0 01-.64 0 .32.32 0 01.32-.32zm0 1.77a.38.38 0 11-.38.38.38.38 0 01.38-.38zm0-6.51a.41.41 0 11.41-.41.41.41 0 01-.42.41zM32 12.26a.32.32 0 01-.31-.32.31.31 0 01.31-.32.32.32 0 01.32.32.33.33 0 01-.32.32zm.28 1.56a.33.33 0 11-.33-.33.33.33 0 01.28.33zM32 10.43a.32.32 0 01-.31-.32.31.31 0 01.31-.32.32.32 0 01.32.32.33.33 0 01-.32.32zm0-1.74a.38.38 0 01-.37-.37.37.37 0 01.28-.32.36.36 0 01.37.37.37.37 0 01-.37.32zm0 6.52a.42.42 0 01.42.42.4.4 0 01-.16.32.42.42 0 01-.52 0 .42.42 0 01-.15-.32.41.41 0 01.33-.42zm0-8.26a.47.47 0 110-.94.47.47 0 110 .94zm-2 .83a.51.51 0 11-.5.51.51.51 0 01.5-.51zm.11 6.31a.32.32 0 11.32-.32.31.31 0 01-.29.32zm.29 1.53a.32.32 0 01-.63 0 .32.32 0 01.63 0zm-.33-3.26a.37.37 0 01-.37-.37.38.38 0 01.37-.37.37.37 0 01.37.37.36.36 0 01-.34.37zm0-1.85a.41.41 0 11.41-.41.41.41 0 01-.4.41zm0 6.57a.42.42 0 01.41.42.42.42 0 01-.83 0 .42.42 0 01.46-.42zm.37 2.92a.66.66 0 01-.25.05.7.7 0 01-.25-.05.65.65 0 01-.39-.59.64.64 0 011.28 0 .65.65 0 01-.39.59zM32 18a.58.58 0 01-.57-.57.57.57 0 111.14 0A.58.58 0 0132 18zm2.28-2a.57.57 0 01-1 0 .54.54 0 01-.06-.25.57.57 0 011.14 0 .54.54 0 01-.08.25zm1.36-1.52a.58.58 0 11.59-.58.58.58 0 01-.59.53zm1.84-3.68a.58.58 0 11.58-.58.58.58 0 01-.58.53z" fill="#4b8934" fill-rule="evenodd"/>
      <path d="M5.42 34.9a.22.22 0 01.23-.22.22.22 0 010 .44.22.22 0 01-.23-.22zM7.2 34.9a.26.26 0 01.25-.26.26.26 0 01.26.26.26.26 0 01-.26.25.25.25 0 01-.25-.25zM9 34.9a.25.25 0 11.5 0 .25.25 0 01-.5 0zM10.85 34.9a.22.22 0 11.22.22.22.22 0 01-.22-.22zM12.69 34.9a.18.18 0 01.19-.19.19.19 0 01.19.19.2.2 0 01-.19.19.19.19 0 01-.19-.19zM14.56 34.9a.13.13 0 01.13-.13.12.12 0 01.12.13.12.12 0 01-.12.12.12.12 0 01-.13-.12zM3.65 34.9a.18.18 0 01.19-.19.19.19 0 01.16.19.2.2 0 01-.19.19.19.19 0 01-.19-.19zM1.9 34.9a.13.13 0 01.26 0 .13.13 0 01-.26 0zM5.17 33.07a.48.48 0 111 0 .48.48 0 01-1 0zM7 33.07a.48.48 0 11.95 0 .48.48 0 01-.95 0zM8.79 33.07a.48.48 0 01.47-.48.49.49 0 01.48.48.48.48 0 01-.48.47.47.47 0 01-.47-.47zM10.6 33.07a.47.47 0 11.94 0 .47.47 0 01-.94 0zM12.5 33.07a.38.38 0 11.76 0 .38.38 0 11-.76 0zM14.47 33.07a.22.22 0 01.22-.23.22.22 0 01.22.23.22.22 0 01-.22.22.22.22 0 01-.22-.22zM16.37 33.07a.12.12 0 01.12-.13.13.13 0 01.13.13.12.12 0 01-.13.12.12.12 0 01-.12-.12zM3.36 33.07a.49.49 0 01.48-.48.48.48 0 01.47.48.47.47 0 01-.47.47.48.48 0 01-.48-.47zM1.75 33.07a.28.28 0 11.28.28.28.28 0 01-.28-.28zM.1 33.07a.12.12 0 01.12-.13.13.13 0 01.13.13.12.12 0 01-.13.12.12.12 0 01-.12-.12zM14.31 31.24a.38.38 0 11.38.38.38.38 0 01-.38-.38zM16.37 31.24a.12.12 0 01.12-.13.13.13 0 01.13.13.13.13 0 01-.13.12.12.12 0 01-.12-.12zM1.65 31.24a.38.38 0 11.38.38.38.38 0 01-.38-.38zM.06 31.24a.16.16 0 01.16-.16.16.16 0 01.16.16.16.16 0 01-.16.15.16.16 0 01-.16-.15zM14.21 29.41a.48.48 0 11.48.47.47.47 0 01-.48-.47zM16.24 29.41a.26.26 0 01.25-.26.26.26 0 01.26.26.26.26 0 01-.26.25.25.25 0 01-.25-.25zM18.18 29.41a.12.12 0 01.12-.13.13.13 0 01.13.13.12.12 0 01-.13.12.12.12 0 01-.12-.12zM1.56 29.41a.47.47 0 11.47.47.47.47 0 01-.47-.47zM0 29.41a.22.22 0 01.22-.22.22.22 0 110 .44.22.22 0 01-.22-.22zM16.05 27.58a.45.45 0 11.44.44.45.45 0 01-.44-.44zM18.08 27.58a.22.22 0 11.44 0 .22.22 0 01-.44 0zM20 27.58a.13.13 0 01.26 0 .13.13 0 01-.26 0zM21.79 27.58a.13.13 0 01.13-.13.12.12 0 01.12.13.12.12 0 01-.12.12.12.12 0 01-.13-.12zM23.6 27.58a.13.13 0 01.13-.13.12.12 0 01.12.13.12.12 0 01-.12.12.12.12 0 01-.13-.12zM1.62 27.58a.41.41 0 11.82 0 .41.41 0 01-.82 0zM.06 27.58a.16.16 0 01.16-.16.16.16 0 01.16.16.16.16 0 01-.16.15.16.16 0 01-.16-.15zM25.34 25.75a.19.19 0 01.19-.19.18.18 0 01.19.19.19.19 0 01-.19.19.2.2 0 01-.19-.19zM27.18 25.75a.16.16 0 01.32 0 .16.16 0 01-.32 0zM29 25.75a.13.13 0 11.26 0 .13.13 0 01-.26 0zM17.83 25.75a.47.47 0 01.47-.48.48.48 0 110 .95.47.47 0 01-.47-.47zM19.79 25.75a.32.32 0 01.32-.32.32.32 0 110 .63.31.31 0 01-.32-.31zM21.63 25.75a.29.29 0 11.57 0 .29.29 0 01-.57 0zM23.51 25.75a.22.22 0 01.22-.22.22.22 0 110 .44.22.22 0 01-.22-.22zM1.71 25.75a.32.32 0 11.32.31.32.32 0 01-.32-.31zM.1 25.75a.12.12 0 01.12-.13.13.13 0 01.13.13.12.12 0 01-.13.12.12.12 0 01-.12-.12zM25.09 23.92a.45.45 0 11.44.44.45.45 0 01-.44-.44zM27 23.92a.38.38 0 11.38.38.38.38 0 01-.38-.38zM28.93 23.92a.22.22 0 11.44 0 .22.22 0 01-.44 0zM30.8 23.92a.16.16 0 01.32 0 .16.16 0 01-.32 0zM32.64 23.92a.13.13 0 01.13-.13.12.12 0 01.12.13.12.12 0 01-.12.12.12.12 0 01-.13-.12zM21.41 23.92a.51.51 0 01.51-.51.51.51 0 010 1 .51.51 0 01-.51-.5zM23.25 23.92a.48.48 0 11.48.47.47.47 0 01-.48-.47zM3.33 23.92a.51.51 0 01.51-.51.51.51 0 010 1 .51.51 0 01-.51-.5zM1.78 23.92a.25.25 0 11.5 0 .25.25 0 01-.5 0zM.1 23.92a.12.12 0 01.12-.13.13.13 0 01.13.13.12.12 0 01-.13.08.12.12 0 01-.12-.12zM28.64 22.09a.51.51 0 011 0 .51.51 0 01-1 0zM30.58 22.09a.38.38 0 11.76 0 .38.38 0 11-.76 0zM32.51 22.09a.26.26 0 01.26-.25.25.25 0 010 .5.26.26 0 01-.26-.25zM34.45 22.09a.13.13 0 01.12-.13.13.13 0 01.13.13.12.12 0 01-.13.12.12.12 0 01-.12-.12zM3.46 22.09a.38.38 0 11.76 0 .38.38 0 11-.76 0zM1.87 22.09a.16.16 0 11.32 0 .16.16 0 01-.32 0zM32.29 20.26a.48.48 0 11.48.47.47.47 0 01-.48-.47zM34.29 20.26a.29.29 0 11.28.28.29.29 0 01-.28-.28zM36.26 20.26a.12.12 0 01.12-.13.13.13 0 01.13.13.13.13 0 01-.13.12.12.12 0 01-.12-.12zM5.17 20.26a.48.48 0 11.48.47.47.47 0 01-.48-.47zM3.62 20.26a.22.22 0 11.44 0 .22.22 0 01-.44 0zM1.9 20.26a.13.13 0 11.26 0 .13.13 0 01-.26 0zM34.1 18.43a.48.48 0 11.47.47.47.47 0 01-.47-.47zM36.1 18.43a.28.28 0 01.28-.29.29.29 0 110 .57.28.28 0 01-.28-.28zM38.06 18.43a.13.13 0 11.26 0 .13.13 0 01-.26 0zM5.39 18.43a.26.26 0 01.26-.26.26.26 0 01.25.26.25.25 0 01-.25.25.26.26 0 01-.26-.25zM7 18.43a.5.5 0 01.5-.51.51.51 0 01.51.51.5.5 0 01-.51.5.5.5 0 01-.5-.5zM3.71 18.43a.13.13 0 01.13-.13.12.12 0 01.12.13.12.12 0 01-.12.12.12.12 0 01-.13-.12zM35.91 16.6a.47.47 0 01.47-.48.48.48 0 110 .95.47.47 0 01-.47-.47zM37.94 16.6a.25.25 0 11.5 0 .25.25 0 01-.5 0zM39.87 16.6a.13.13 0 01.13-.13.12.12 0 01.12.13.12.12 0 01-.12.12.12.12 0 01-.13-.12zM5.52 16.6a.13.13 0 01.13-.13.12.12 0 01.12.13.12.12 0 01-.12.12.12.12 0 01-.13-.12zM7.17 16.6a.29.29 0 11.28.28.29.29 0 01-.28-.28zM8.79 16.6a.47.47 0 01.47-.48.48.48 0 110 .95.47.47 0 01-.47-.47zM37.81 14.77a.38.38 0 11.38.38.38.38 0 01-.38-.38zM39.81 14.77a.18.18 0 01.19-.19.19.19 0 01.19.19.2.2 0 01-.19.23.19.19 0 01-.19-.19zM7.33 14.77a.12.12 0 01.12-.13.13.13 0 01.13.13.12.12 0 01-.13.12.12.12 0 01-.12-.12zM9 14.77a.25.25 0 11.5 0 .25.25 0 01-.5 0zM10.69 14.77a.38.38 0 11.38.38.38.38 0 01-.38-.38zM12.25 14.77a.63.63 0 11.63.63.63.63 0 01-.63-.63zM37.56 12.94a.63.63 0 11.63.63.63.63 0 01-.63-.63zM39.71 12.94a.29.29 0 01.29-.29.28.28 0 01.28.29.27.27 0 01-.28.28.28.28 0 01-.29-.28zM41.68 12.94a.13.13 0 01.13-.13.12.12 0 01.12.13.12.12 0 01-.12.12.12.12 0 01-.13-.12zM9.14 12.94a.12.12 0 01.12-.13.13.13 0 01.13.13.12.12 0 01-.13.12.12.12 0 01-.12-.12zM10.88 12.94a.19.19 0 11.38 0 .19.19 0 11-.38 0zM12.59 12.94a.29.29 0 11.57 0 .29.29 0 01-.57 0zM14.24 12.94a.45.45 0 11.45.44.45.45 0 01-.45-.44zM16 12.94a.5.5 0 01.5-.51.51.51 0 01.51.51.5.5 0 01-.51.5.5.5 0 01-.5-.5zM39.56 11.11a.44.44 0 01.44-.45.45.45 0 010 .89.44.44 0 01-.44-.44zM41.65 11.11a.16.16 0 01.16-.16.16.16 0 010 .32.16.16 0 01-.16-.16zM12.75 11.11a.13.13 0 01.13-.13.12.12 0 01.12.13.12.12 0 01-.12.12.12.12 0 01-.13-.12zM14.5 11.11a.18.18 0 01.19-.19.19.19 0 01.19.19.2.2 0 01-.19.19.19.19 0 01-.19-.19zM16.27 11.11a.22.22 0 01.22-.22.21.21 0 01.22.22.22.22 0 01-.22.22.22.22 0 01-.22-.22zM18 11.11a.28.28 0 01.28-.29.29.29 0 110 .57.28.28 0 01-.28-.28zM19.79 11.11a.32.32 0 01.32-.32.32.32 0 110 .63.31.31 0 01-.32-.31zM21.48 11.11a.44.44 0 01.44-.45.45.45 0 010 .89.44.44 0 01-.44-.44zM23.22 11.11a.51.51 0 01.51-.51.5.5 0 01.5.51.5.5 0 01-.5.5.5.5 0 01-.51-.5zM25.16 9.28a.37.37 0 01.37-.38.38.38 0 110 .76.37.37 0 01-.37-.38zM39.49 9.28a.51.51 0 01.51-.51.5.5 0 01.5.51.5.5 0 01-.5.5.5.5 0 01-.51-.5zM41.59 9.28a.22.22 0 01.22-.22.22.22 0 010 .44.22.22 0 01-.22-.22zM43.49 9.28a.13.13 0 01.12-.13.13.13 0 01.13.13.12.12 0 01-.13.12.12.12 0 01-.12-.12zM16.37 9.28a.12.12 0 01.12-.13.13.13 0 01.13.13.12.12 0 01-.13.12.12.12 0 01-.12-.12zM18.14 9.28a.16.16 0 01.32 0 .16.16 0 01-.32 0zM20 9.28a.16.16 0 11.32 0 .16.16 0 01-.32 0zM21.73 9.28a.18.18 0 01.19-.19.19.19 0 01.19.19.2.2 0 01-.19.19.19.19 0 01-.19-.19zM23.51 9.28a.22.22 0 01.22-.22.22.22 0 110 .44.22.22 0 01-.22-.22zM25.31 7.45a.22.22 0 01.22-.22.22.22 0 010 .44.22.22 0 01-.22-.22zM26.87 7.45a.47.47 0 01.47-.45.48.48 0 110 1 .47.47 0 01-.47-.47zM41.52 7.45a.29.29 0 11.57 0 .29.29 0 01-.57 0zM43.49 7.45a.13.13 0 01.12-.13.13.13 0 01.13.13.12.12 0 01-.13.12.12.12 0 01-.12-.12zM23.6 7.45a.13.13 0 01.13-.13.12.12 0 01.12.13.12.12 0 01-.12.12.12.12 0 01-.13-.12zM25.41 5.62a.12.12 0 01.12-.13.13.13 0 01.13.13.12.12 0 01-.13.12.12.12 0 01-.12-.12zM27 5.62a.32.32 0 11.31.31.31.31 0 01-.31-.31zM39.37 5.62a.63.63 0 111.26 0 .63.63 0 11-1.26 0zM41.52 5.62a.29.29 0 11.57 0 .29.29 0 01-.57 0zM43.49 5.62a.13.13 0 01.12-.13.13.13 0 01.13.13.12.12 0 01-.13.12.12.12 0 01-.12-.12zM25.41 3.79a.12.12 0 01.12-.13.13.13 0 01.13.13.12.12 0 01-.13.12.12.12 0 01-.12-.12zM27.09 3.79a.26.26 0 01.25-.26.26.26 0 01.26.26.26.26 0 01-.26.25.25.25 0 01-.25-.25zM28.71 3.79a.44.44 0 11.44.44.45.45 0 01-.44-.44zM39.53 3.79a.47.47 0 11.94 0 .47.47 0 01-.94 0zM41.59 3.79a.22.22 0 01.22-.23.22.22 0 01.22.23.22.22 0 01-.22.22.22.22 0 01-.22-.22zM43.49 3.79a.13.13 0 01.12-.13.13.13 0 01.13.13.12.12 0 01-.13.12.12.12 0 01-.12-.12zM27.18 2a.16.16 0 01.32 0 .16.16 0 01-.32 0zM28.9 2a.25.25 0 11.5 0 .25.25 0 11-.5 0zM30.64 2a.32.32 0 11.63 0 .32.32 0 01-.63 0zM32.39 2a.38.38 0 11.38.38.38.38 0 01-.38-.38zM34.13 2A.45.45 0 0135 2a.45.45 0 01-.89 0zM36 2a.38.38 0 11.38.38A.38.38 0 0136 2zM37.87 2a.32.32 0 01.32-.32.32.32 0 110 .63.32.32 0 01-.32-.31zM39.75 2a.25.25 0 11.5 0 .25.25 0 11-.5 0zM41.65 2a.16.16 0 01.16-.16A.16.16 0 0142 2a.16.16 0 11-.31 0zM29.07.13a.08.08 0 11.16 0 .08.08 0 01-.16 0zM30.83.13A.13.13 0 0131 0a.12.12 0 01.12.13.12.12 0 01-.12.12.12.12 0 01-.13-.12zM32.64.13a.13.13 0 01.13-.13.12.12 0 01.12.13.12.12 0 01-.12.12.12.12 0 01-.13-.12zM34.45.13a.13.13 0 01.12-.13.13.13 0 01.13.13.12.12 0 01-.13.12.12.12 0 01-.12-.12zM36.26.13a.12.12 0 01.12-.13.13.13 0 01.13.13.12.12 0 01-.13.12.12.12 0 01-.12-.12zM38.06.13a.13.13 0 11.26 0 .13.13 0 01-.26 0zM39.92.13A.08.08 0 0140 .05a.07.07 0 01.07.08.07.07 0 01-.07.07.08.08 0 01-.08-.07zM5.53 36.48a.07.07 0 01.07-.06.06.06 0 01.06.06.06.06 0 01-.06.06s-.07 0-.07-.06zM7.27 36.48a.1.1 0 01.1-.1.11.11 0 01.1.1.1.1 0 01-.1.1.09.09 0 01-.1-.1zM9 36.48a.1.1 0 11.2 0 .1.1 0 11-.2 0zM10.85 36.48a.06.06 0 11.12 0 .06.06 0 01-.12 0zM.05 34.71a.06.06 0 01.06-.06.06.06 0 010 .12.06.06 0 01-.06-.06z" fill="#4b8934"/>
      <path d="M57.78 17.71V8.86c0-1.62-.55-3.24-3.32-3.24a5.45 5.45 0 00-3.4 1.12 5.31 5.31 0 00-.23-1.1l-3.66.62a16.74 16.74 0 01.36 4v7.5h4V9.57a2.28 2.28 0 011.31-.68c.57 0 1 0 1 1.28v7.54z" fill="#3e5052"/>
      <path d="M68.33 18.19L70.62 16a2.39 2.39 0 01-.91-2.31V9.61a5.72 5.72 0 00-.18-1.82c-.44-1.4-2-2.15-4.26-2.15A10.45 10.45 0 0060 7.29l1.44 2.46a5.41 5.41 0 013.36-1.23c.87 0 1 .41 1 1.1v.73a4.51 4.51 0 00-.66 0c-3.29 0-5.24 1.61-5.24 3.85S61 18 63.92 18a4.55 4.55 0 003-1 3.08 3.08 0 001.46 1.16zm-2.56-5.37v2.06a1.41 1.41 0 01-.94.39 1 1 0 01-1.09-1.15c0-.68.36-1.35 2-1.3z" fill="#3e5052" fill-rule="evenodd"/>
      <path d="M76.83 2.39l-4 .59a22.44 22.44 0 00-.13 2.93h-1v2.61h1v6.65c0 2.29 1.48 2.86 3.7 2.86a6.91 6.91 0 003-.68l-.4-2.29a2.21 2.21 0 01-1 .23c-1 0-1.24-.37-1.24-2V8.52h1.65l.53-2.61h-2.23a30.81 30.81 0 01.12-3.52zM91.46 5.59l-4 .64v8.21a1.82 1.82 0 01-1.23.6c-.69 0-1-.16-1-.89V5.59l-4 .64v6.86a9.69 9.69 0 00.21 2.91c.41 1.3 1.56 2 3.7 2a4.33 4.33 0 003-1.08A3.26 3.26 0 0088.6 18l3.45-1.23a5.35 5.35 0 01-.59-2.68v-8.5zM101.73 5.91a3.4 3.4 0 00-1.48-.34A3 3 0 0097.82 7a5.53 5.53 0 00-.25-1.39l-3.66.62a18.12 18.12 0 01.37 4.27v7.18h4V9.64a1.53 1.53 0 011.39-.85 2.22 2.22 0 011.17.32l.91-3.2zM111.24 14.1c0-1.35-.63-2.63-2.95-3.22l-1.45-.37c-1.16-.3-1.55-.66-1.55-1.37 0-.89.68-1.49 1.76-1.49a5.77 5.77 0 012.83.85l.83-1.74a7.92 7.92 0 00-3.82-1c-2.56 0-4.3 1.51-4.3 3.68a3.16 3.16 0 002.77 3.18l1.39.3c1.3.27 1.87.73 1.87 1.62a1.69 1.69 0 01-1.87 1.63A8.15 8.15 0 01103 15l-.89 1.8a9.24 9.24 0 004.43 1.2c2.8 0 4.7-1.6 4.7-3.93zM116.59 2.66l-2.59.62a21.94 21.94 0 00-.12 2.86h-1.28v1.74h1.28V15a2.69 2.69 0 003 3 5.42 5.42 0 002.27-.5l-.29-1.5a3 3 0 01-1.08.23c-1.09 0-1.42-.42-1.42-1.86V7.88h2.13l.66-1.74h-2.76a33.36 33.36 0 01.2-3.48zM127.65 6a2 2 0 00-.9-.18 3.65 3.65 0 00-3 1.85 4.14 4.14 0 00-.43-1.83l-2.31.6a9.28 9.28 0 01.41 3.11v8.16H124V9.89a2.27 2.27 0 012.17-1.71 1.93 1.93 0 01.71.16l.77-2.34z" fill="#3e5052"/>
      <path d="M133.4 5.87c-3.06 0-5.06 2.38-5.06 6.08s2 6.06 5.11 6.06 5.12-2.31 5.12-6-1.88-6.1-5.17-6.1zm0 1.9c1.47 0 2.38 1 2.38 4.25 0 2.9-.82 4.11-2.31 4.11s-2.35-1-2.35-4.34c0-2.81.68-4 2.28-4z" fill="#3e5052" fill-rule="evenodd"/>
      <path d="M156 17.71V9.25c0-2.4-1.12-3.38-3-3.38a4.76 4.76 0 00-3.45 1.69 3 3 0 00-2.77-1.69 4.34 4.34 0 00-3.06 1.46 3.26 3.26 0 00-.41-1.49l-2.31.64a7.44 7.44 0 01.41 2.93v8.3h2.45V9.14A3.67 3.67 0 01146.19 8c1 0 1.27.44 1.27 1.79v7.93h2.4V9.3A3.83 3.83 0 01152.3 8c.89 0 1.19.39 1.19 1.74v8zM47.16 32.61v-8h4.43l-.18 1.08h-2.93v2.21h2.46V29h-2.43v2.49h3.19v1.13zM56.93 32.61l-1.49-2.82a17.25 17.25 0 01-.75-1.57c0 .38 0 1.09.05 1.72v2.67h-1.19V26.5H55l1.54 2.77a10.53 10.53 0 01.66 1.42c0-.33-.1-1-.1-1.6V26.5h1.2v6.11zM60.57 32.61V26.5h3.85l-.18 1h-2.4v1.41h2v1h-2v1.63h2.66v1.06zM69.86 32.61l-.6-1a5.82 5.82 0 00-1-1.42.71.71 0 00-.44-.15v2.55h-1.29V26.5h2.07a2.59 2.59 0 011.75.43 1.69 1.69 0 01.65 1.36A1.65 1.65 0 0169.48 30a1.29 1.29 0 01.27.29c.2.26.52.68.8 1.1l.84 1.23zm-2.07-5.14v1.68h.56a1.65 1.65 0 001-.22.74.74 0 00.27-.63.7.7 0 00-.52-.74 2.48 2.48 0 00-.74-.09zM75.6 32.68a2.92 2.92 0 01-2.3-.91 3 3 0 01-.76-2.19 2.92 2.92 0 013-3.17 3.51 3.51 0 012.12.68l-.66.77a2.41 2.41 0 00-1.44-.47 1.33 1.33 0 00-1.43.86 4 4 0 00-.13 1.41c0 1 .22 1.53.67 1.83a1.8 1.8 0 001 .28 2.15 2.15 0 00.8-.16v-1.4h-1.09l-.18-1h2.58v2.94a4.53 4.53 0 01-2.18.53zM79.84 32.61V26.5h1.32v6.11zM83.49 32.61V26.5h3.85l-.18 1h-2.4v1.41h2v1h-2v1.63h2.65v1.06zM97.85 32.61l-.27-3.42c0-.42 0-1-.07-1.19 0 .2-.19.74-.32 1.15l-1.08 3.46H95l-1-3.4c-.12-.38-.26-1-.32-1.28 0 .23 0 .83-.07 1.28l-.25 3.4h-1.28l.65-6.11h1.65l.93 3.14c.13.42.24.95.29 1.18a8 8 0 01.29-1.2l.94-3.12h1.67l.61 6.11zM101.12 32.61V26.5h1.32v6.11zM108.77 27.52h-1.66v5.09h-1.28v-5.09h-1.68v-1H109zM117.59 32.61h-4.86v-1l3.11-5.18c.24-.4.53-.78.53-.78a7.56 7.56 0 01-.86.05h-2.63l.3-1.1h4.68v1l-3.1 5.24c-.18.3-.47.68-.47.68H117.93zM123.82 32.13a2.64 2.64 0 01-1.85.6 2.43 2.43 0 01-2.17-.9 2.12 2.12 0 01-.28-1.29v-4h1.29v3.84a2 2 0 00.11.84 1.08 1.08 0 001 .51 1.12 1.12 0 00.88-.32c.16-.2.23-.39.23-1V26.5h1.29v4c.03.94-.11 1.26-.5 1.63zM130.06 32.61l-2.15-3.19v3.19h-1.31V26.5h1.31v2.78L130 26.5h1.59l-2.27 2.82 2.47 3.29zM137.47 32.13a2.67 2.67 0 01-1.86.6 2.44 2.44 0 01-2.17-.9 2.12 2.12 0 01-.27-1.29v-4h1.29v3.84a2.08 2.08 0 00.1.84 1.08 1.08 0 001 .51 1.14 1.14 0 00.89-.32c.16-.2.23-.39.23-1V26.5H138v4c0 .94-.14 1.26-.53 1.63zM143.66 32.61l-1.49-2.82c-.32-.6-.65-1.32-.75-1.57 0 .38 0 1.09.05 1.72l.05 2.67h-1.24V26.5h1.42l1.54 2.77a9.16 9.16 0 01.65 1.42c0-.33-.09-1-.09-1.6V26.5h1.2v6.11zM150.8 27.49h-2.23v1.43h1.81v1h-1.81v2.67h-1.27V26.5h3.7zM156.62 27.52H155v5.09h-1.28v-5.09H152v-1h4.84z" fill="#3e5052"/>
  </g>
</svg>
