<svg xmlns="http://www.w3.org/2000/svg" viewBox="0 0 293.96 56.69" width="293.96" height="56.69">
      <g fill="#2b302b">
          <path d="M91.87 17.12q2.91 3.07 2.91 9 0 6.27-2.84 9.57A9.25 9.25 0 0184.62 39a7.65 7.65 0 01-4.74-1.42 9 9 0 01-2-2.29v12.39h-6.16V14.57h6v3.51a10.05 10.05 0 012.15-2.44 7.93 7.93 0 015-1.59 9.42 9.42 0 017 3.07zm-4.77 4.47a4.4 4.4 0 00-4.1-2.11 4.67 4.67 0 00-4.69 3.2 12.06 12.06 0 00-.67 4.32c0 2.76.75 4.7 2.23 5.82a5.11 5.11 0 003.12 1 4.55 4.55 0 004-2 9.23 9.23 0 001.38-5.34 9.22 9.22 0 00-1.27-4.89zM120.83 35.43q-3 3.7-9.13 3.71t-9.14-3.71a13.79 13.79 0 01-3-8.94 13.87 13.87 0 013-8.91q3-3.76 9.14-3.77t9.13 3.77a13.87 13.87 0 013 8.91 13.8 13.8 0 01-3 8.94zm-5-3.44a9 9 0 001.46-5.5 9 9 0 00-1.46-5.5 5.51 5.51 0 00-8.38 0 8.91 8.91 0 00-1.47 5.5 8.93 8.93 0 001.47 5.5 5.49 5.49 0 008.38 0zM135.56 38.33h-6.22V6.2h6.22zM152.4 23.88a10 10 0 002.48-.54 1.88 1.88 0 001.34-1.77 2.1 2.1 0 00-1-2 6.48 6.48 0 00-3-.55 4 4 0 00-3.22 1.07 4.54 4.54 0 00-.89 2.18h-6a9 9 0 011.75-5.12c1.65-2.1 4.48-3.14 8.49-3.14a15.18 15.18 0 017 1.54c2 1 3 3 3 5.85v13.64a3.57 3.57 0 00.37 1.66 2.28 2.28 0 00.92.72v.91H157a6.68 6.68 0 01-.39-1.35q-.1-.63-.18-1.44a12.85 12.85 0 01-3 2.38 9 9 0 01-4.56 1.15 7.86 7.86 0 01-5.36-1.84 6.55 6.55 0 01-2.13-5.23 6.76 6.76 0 013.4-6.34 15.27 15.27 0 015.49-1.53zm3.8 2.9a6.48 6.48 0 01-1.21.6 10.37 10.37 0 01-1.66.42l-1.42.27a9 9 0 00-2.85.85 2.82 2.82 0 00-1.47 2.63 2.77 2.77 0 00.89 2.3 3.39 3.39 0 002.19.71 6.48 6.48 0 003.75-1.18q1.71-1.17 1.78-4.29zM182.63 14h.54v6.37q-.6-.08-1-.09h-.74q-3.75 0-5 2.44a9.46 9.46 0 00-.72 4.23v11.38h-6.25V14.57h5.93v4.15a13.09 13.09 0 012.5-3.25 6.82 6.82 0 014.45-1.47zM191.88 30.75a4.09 4.09 0 00.86 2.35c.77.83 2.2 1.24 4.29 1.24a6.62 6.62 0 002.97-.54 1.76 1.76 0 001-1.64 1.79 1.79 0 00-.88-1.59 35.5 35.5 0 00-6.5-1.87 13.49 13.49 0 01-5.7-2.51 5.42 5.42 0 01-1.66-4.27 7.41 7.41 0 012.59-5.66c1.73-1.57 4.15-2.36 7.28-2.36a13.45 13.45 0 017.27 1.77c1.87 1.19 2.94 3.23 3.22 6.14h-6.21a3.76 3.76 0 00-.68-1.9 4.29 4.29 0 00-3.5-1.26 5 5 0 00-2.89.63 1.82 1.82 0 00-.87 1.48 1.62 1.62 0 00.92 1.55 38.61 38.61 0 006.53 1.69 11.93 11.93 0 015.56 2.64 6 6 0 011.83 4.47 7.18 7.18 0 01-2.63 5.76c-1.75 1.49-4.47 2.24-8.13 2.24s-6.51-.79-8.29-2.37a7.65 7.65 0 01-2.68-6zM210.17 19.22v-4.43h3.32V8.17h6.14v6.62h3.86v4.43h-3.86v12.55a2.86 2.86 0 00.37 1.82 4.11 4.11 0 002.27.36h1.22v4.64l-2.94.11c-2.94.1-4.94-.41-6-1.53a4.57 4.57 0 01-1-3.29V19.22zM244.13 15.06a9.64 9.64 0 014.11 3.51 11.73 11.73 0 011.89 4.91 29.08 29.08 0 01.2 4.72H233q.15 3.57 2.49 5a6.25 6.25 0 003.42.89 5.24 5.24 0 003.48-1.09 5.18 5.18 0 001.28-1.63H250a7.74 7.74 0 01-2.3 4.29q-3.19 3.46-8.94 3.47a13 13 0 01-8.37-2.92q-3.63-2.92-3.62-9.52 0-6.16 3.27-9.46a11.43 11.43 0 018.49-3.3 13.42 13.42 0 015.6 1.13zm-9.29 5.36a6.49 6.49 0 00-1.66 3.68h10.71a5.2 5.2 0 00-1.66-3.75 5.42 5.42 0 00-3.68-1.29 5 5 0 00-3.71 1.36zM268.29 14h.53v6.37c-.39-.05-.74-.08-1-.09h-.74q-3.75 0-5 2.44a9.46 9.46 0 00-.72 4.23v11.38H255V14.57h6v4.15a12.86 12.86 0 012.5-3.25A6.82 6.82 0 01268 14zM291.62 15.94q2.38 1.92 2.38 6.39v16h-6.37V23.88a6.53 6.53 0 00-.5-2.88 3.49 3.49 0 00-3.46-1.83 4.29 4.29 0 00-4.3 2.68 9.17 9.17 0 00-.61 3.62v12.86h-6.21V14.62h6v3.46a10.42 10.42 0 012.26-2.63 7.84 7.84 0 014.81-1.45 9.06 9.06 0 016 1.94zM28.34 0A28.35 28.35 0 1056.7 28.35 28.34 28.34 0 0028.34 0zm9.71 30.43a8.89 8.89 0 01-1.4 2.94 6.83 6.83 0 01-5.72 2.8 9.76 9.76 0 01-1.7-.15 7.51 7.51 0 01-1.63-.5 6.17 6.17 0 01-1.44-.86 4.85 4.85 0 01-1.11-1.24H25v8.76h-4.33v-24h4.11v2.38h.07a4.83 4.83 0 012.27-2.2 7.61 7.61 0 013.16-.66 8.47 8.47 0 013.62.73 7.2 7.2 0 012.57 2 8.72 8.72 0 011.53 3 12.54 12.54 0 01.51 3.57 13.15 13.15 0 01-.46 3.43z"/>
          <path class="cls-1" d="M29.77 32.77a4.1 4.1 0 01-1.93-.44 4.43 4.43 0 01-1.43-1.2 5.15 5.15 0 01-.91-1.83 8.54 8.54 0 01-.31-2.37 7.28 7.28 0 011.17-4.32 3.92 3.92 0 013.41-1.56 3.85 3.85 0 011.94.48 4.42 4.42 0 011.42 1.3 5.91 5.91 0 01.87 1.88 8.61 8.61 0 01.29 2.22 9.35 9.35 0 01-.29 2.18 5.21 5.21 0 01-.75 1.89 4.31 4.31 0 01-1.41 1.31 4 4 0 01-2.07.46z"/>
      </g>
</svg>