<?xml version="1.0" encoding="utf-8"?>
<!-- Generator: Adobe Illustrator 27.8.0, SVG Export Plug-In . SVG Version: 6.00 Build 0)  -->
<svg version="1.1" id="Ebene_1" xmlns="http://www.w3.org/2000/svg" xmlns:xlink="http://www.w3.org/1999/xlink" x="0px" y="0px"
	 viewBox="0 0 213.3 59.1" style="enable-background:new 0 0 213.3 59.1;" xml:space="preserve">
<style type="text/css">
	.st0{fill:#FAC075;}
	.st1{fill:#F39200;}
	.st2{fill:#D87A68;}
	.st3{fill:#BE1622;}
	.st4{fill:#5BC5F2;}
	.st5{fill:#009FE3;}
	.st6{fill:#CCDC84;}
	.st7{fill:#A2C617;}
	.st8{fill:#706F6F;}
</style>
<path class="st0" d="M24.3,23.5l-11.8-6.1c-0.1-0.1-0.4-0.2-0.4-0.2c0,0,0,0,0-0.1h0l-6,11C6,28.3,6,28.4,6,28.5
	c0,0.1,0,0.1,0.1,0.2c0.1,0.1,0.3,0.2,0.5,0.2l17.7-5.1c0.1,0,0.5-0.1,0.6-0.2C24.7,23.6,24.5,23.6,24.3,23.5L24.3,23.5z"/>
<path class="st0" d="M12.2,17C12.2,17,12.2,16.9,12.2,17C12.3,16.9,12.2,17,12.2,17z"/>
<path class="st1" d="M12.2,17c0,0.1-0.1,0.1-0.1,0.2l0,0C12.1,17.1,12.2,17.1,12.2,17z"/>
<path class="st1" d="M22.6,14.9c-0.1-0.5-0.8-1-1.5-0.8l-8.3,2.4c-0.2,0.1-0.4,0.3-0.5,0.4c0,0,0,0-0.1,0.1c0,0.1-0.1,0.1-0.1,0.2
	l0,0c0,0,0,0.1,0,0.1c0,0,0.3,0.1,0.4,0.2l11.8,6.1c0.2,0.1,0.4,0.1,0.5-0.1C25,23.3,25,23.1,25,23L22.6,14.9L22.6,14.9z"/>
<path class="st2" d="M26.4,22.3l6.1-11.8c0.1-0.1,0.2-0.4,0.2-0.4c0,0,0,0,0.1,0h0l-11-6.1C21.7,4,21.6,4,21.4,4
	c-0.1,0-0.1,0-0.2,0.1c-0.1,0.1-0.2,0.3-0.2,0.5l5.1,17.7c0,0.1,0.1,0.5,0.2,0.6C26.4,22.7,26.3,22.5,26.4,22.3L26.4,22.3z"/>
<path class="st0" d="M32.9,10.2C32.9,10.2,33,10.2,32.9,10.2C33,10.3,33,10.2,32.9,10.2z"/>
<path class="st1" d="M32.9,10.2c-0.1,0-0.1-0.1-0.2-0.1l0,0C32.8,10.1,32.9,10.2,32.9,10.2z"/>
<path class="st3" d="M35,20.6c0.5-0.1,1-0.8,0.8-1.5l-2.4-8.3c-0.1-0.2-0.3-0.4-0.4-0.5c0,0,0,0-0.1-0.1c-0.1,0-0.1-0.1-0.2-0.1l0,0
	c0,0-0.1,0-0.1,0c0,0-0.1,0.3-0.2,0.4l-6.1,11.8c-0.1,0.2-0.1,0.4,0.1,0.5C26.6,23,26.8,23,27,23L35,20.6L35,20.6z"/>
<path class="st4" d="M27.8,24.4l11.8,6.1c0.1,0.1,0.4,0.2,0.4,0.2c0,0,0,0,0,0.1h0l6-11c0.1-0.1,0.1-0.2,0-0.4c0-0.1,0-0.1-0.1-0.2
	c-0.1-0.1-0.3-0.2-0.5-0.2l-17.7,5.1c-0.1,0-0.5,0.1-0.6,0.2C27.4,24.3,27.6,24.3,27.8,24.4L27.8,24.4z"/>
<path class="st0" d="M39.9,30.9C39.9,30.9,39.8,30.9,39.9,30.9C39.8,30.9,39.8,30.9,39.9,30.9z"/>
<path class="st1" d="M39.9,30.9c0-0.1,0.1-0.1,0.1-0.2l0,0C39.9,30.8,39.9,30.8,39.9,30.9z"/>
<path class="st5" d="M29.4,33c0.1,0.5,0.8,1,1.5,0.8l8.3-2.4c0.2-0.1,0.4-0.3,0.5-0.4c0,0,0,0,0.1-0.1c0-0.1,0.1-0.1,0.1-0.2l0,0
	c0,0,0-0.1,0-0.1c0,0-0.3-0.1-0.4-0.2l-11.8-6.1c-0.2-0.1-0.4-0.1-0.5,0.1c-0.1,0.1-0.2,0.3-0.1,0.5L29.4,33L29.4,33z"/>
<path class="st6" d="M25.6,25.5l-6.1,11.8c-0.1,0.1-0.2,0.4-0.2,0.4c0,0,0,0-0.1,0h0l11,6.1c0.1,0.1,0.2,0.1,0.4,0
	c0.1,0,0.1,0,0.2-0.1c0.1-0.1,0.2-0.3,0.2-0.5l-5.1-17.7c0-0.1-0.1-0.5-0.2-0.6C25.7,25.2,25.7,25.4,25.6,25.5L25.6,25.5z"/>
<path class="st0" d="M19.1,37.7C19.1,37.7,19.1,37.6,19.1,37.7C19.1,37.6,19.1,37.6,19.1,37.7z"/>
<path class="st1" d="M19.1,37.7c0.1,0,0.1,0.1,0.2,0.1l0,0C19.2,37.7,19.2,37.7,19.1,37.7z"/>
<path class="st7" d="M17,27.2c-0.5,0.1-1,0.8-0.8,1.5l2.4,8.3c0.1,0.2,0.3,0.4,0.4,0.5c0,0,0,0,0.1,0.1c0.1,0,0.1,0.1,0.2,0.1l0,0
	c0,0,0.1,0,0.1,0c0,0,0.1-0.3,0.2-0.4l6.1-11.8c0.1-0.2,0.1-0.4-0.1-0.5c-0.1-0.1-0.3-0.2-0.5-0.1L17,27.2L17,27.2z"/>
<path class="st8" d="M37.1,42.1l2.1-0.6l4.1,14.4h0l4.5-14h2.2l4.1,14h0l4.6-14.4l1.9,0.6L55,58.4h-1.9l-4.3-14h0l-4.5,14h-1.9
	C42.2,58.4,37.1,42.1,37.1,42.1z"/>
<path class="st8" d="M63,52.2v0.4c0,2.5,0.9,4.7,3.4,4.7c1.4,0,2.4-0.8,3.4-1.7l0.9,1c-1.2,1.2-2.8,2.1-4.6,2.1
	c-3.3,0-5.2-2.4-5.2-6.3c0-3.3,2.3-6.3,5.5-6.3c3.2,0,4.6,2.5,4.6,5.7v0.4H63L63,52.2z M69.1,50.9c0-1.7-0.7-3.3-2.7-3.3
	c-1.8,0-3,1.7-3.3,3.3C63.2,50.9,69.1,50.9,69.1,50.9z"/>
<path class="st8" d="M73.6,56.3c0.7,0.5,1.6,1,2.6,1s2.3-0.6,2.3-1.9c0-3-5.6-1.7-5.6-5.7c0-2.3,1.9-3.6,4-3.6c1.3,0,2.6,0.4,3.5,1
	l-0.9,1.2c-0.7-0.4-1.4-0.8-2.3-0.8c-1.4,0-2.4,0.6-2.4,2c0,2.6,5.6,1.5,5.6,5.6c0,2.3-2,3.6-4,3.6c-1.4,0-2.7-0.5-3.8-1.2
	L73.6,56.3L73.6,56.3z"/>
<path class="st8" d="M84,46.5l0-4.4h1.9l0,4.4h3.3v1.4h-3.3l0,4.9c0,1.3,0,2.2,0,2.8c0,1,0.3,1.5,1.1,1.5c0.6,0,1.5-0.4,1.9-0.7
	l0.6,1.3c-0.8,0.5-1.9,1-3,1c-1.9,0-2.6-1.2-2.6-3c0-0.8,0-1.8,0-3.4l0-4.4h-2v-1.4L84,46.5L84,46.5z"/>
<path class="st8" d="M89.9,46.5h2.3c0-0.7,0-1.5,0.1-2.3c0.3-2.9,2.3-3.9,5-3.9v1.6h-0.8c-1.6,0-2.3,1.3-2.4,2.7l-0.1,1.9h3.3v1.4
	h-3.2l-0.1,10.5h-1.9l0.1-10.5h-2.3L89.9,46.5L89.9,46.5z"/>
<path class="st8" d="M109.4,57.9c-0.7,0.5-1.4,0.9-2.2,0.9c-1.1,0-1.7-1-1.8-2c-0.9,1.1-2.1,2-3.6,2c-2.1,0-3.5-1.4-3.5-3.5
	c0-3.4,4.4-4.2,7-4.3c0-0.5,0-1,0-1.5c0-1-0.6-1.8-1.8-1.8c-0.9,0-1.7,0.3-3.5,1.7l-0.8-1.3c2.4-1.6,3.2-2,4.9-2c2,0,3,1.2,3,3
	c0,2.3-0.2,4.4-0.2,6.5c0,0.9,0.1,1.7,0.9,1.7c0.4,0,0.7-0.2,1-0.4L109.4,57.9L109.4,57.9z M105.3,52.2c-3.3,0.4-5.1,1.1-5.1,3.1
	c0,1.3,0.8,2,2.1,2c1.2,0,2.1-0.8,2.8-1.8L105.3,52.2L105.3,52.2z"/>
<path class="st8" d="M111.2,40.4h1.9l-0.1,18H111L111.2,40.4z"/>
<path class="st8" d="M117.8,52.2v0.4c0,2.5,0.9,4.7,3.4,4.7c1.4,0,2.4-0.8,3.4-1.7l0.9,1c-1.2,1.2-2.8,2.1-4.6,2.1
	c-3.3,0-5.2-2.4-5.2-6.3c0-3.3,2.3-6.3,5.5-6.3c3.2,0,4.6,2.5,4.6,5.7v0.4H117.8L117.8,52.2z M123.9,50.9c0-1.7-0.7-3.3-2.7-3.3
	c-1.8,0-3,1.7-3.3,3.3C117.9,50.9,123.9,50.9,123.9,50.9z"/>
<path class="st8" d="M128.7,46.5h1.9l-0.1,1.9h0c1-1.4,2.6-2.3,4.1-2.3c2.8,0,3.7,1.4,3.7,3.6c0,0.9,0,1.8,0,2.7l0,5.9h-1.9l0-5.4
	c0-1.1,0-2.1,0-3.3c0-1.3-0.9-1.9-2.2-1.9c-1.3,0-2.4,0.7-3.6,2.2l-0.1,8.4h-1.9L128.7,46.5L128.7,46.5z"/>
<path class="st8" d="M146.4,41.4c0.2,4.2,0.5,10.8,0.6,13.4h0c0.9-2.8,3.9-9.1,5.9-13.2h2.6c0.5,4.1,1.1,10.1,1.3,13.2h0
	c1.1-3.2,3.6-9.2,5.4-13.4l2.4,0.7l-7.3,16.3h-3.1l-1.2-11.6h0l-5.4,11.6h-3.2l-1.1-16.8L146.4,41.4L146.4,41.4z"/>
<path class="st8" d="M163.8,58.4l3.2-16.8h3l-3.2,16.8H163.8z"/>
<path class="st8" d="M184.3,58.4h-2.3c-2.2-4-5.5-9.9-6.7-12.4h0c-0.3,2.5-1.3,8.4-2,12.4h-2.6l3.2-16.8h2.4
	c2.2,3.9,5.1,9.1,6.6,12.2h0c0.3-3,1.3-8.3,2-12.2h2.6L184.3,58.4L184.3,58.4z"/>
<path class="st8" d="M196.7,41.6c6.2,0,7,4.5,7,6.7c0,0.3-0.3,10.1-10.4,10.1h-4.9l3.2-16.8H196.7L196.7,41.6z M191.8,56.4h1.9
	c6.3,0,6.8-7,6.8-7.9c0-2-0.9-4.9-4.1-4.9h-2.1C194.2,43.6,191.8,56.4,191.8,56.4z"/>
</svg>
